<?xml version="1.0" standalone="no"?>
<!DOCTYPE svg PUBLIC "-//W3C//DTD SVG 1.1//EN" "http://www.w3.org/Graphics/SVG/1.1/DTD/svg11.dtd">
<svg xmlns="http://www.w3.org/2000/svg">
<defs >
<font id="HankenGrotesk" horiz-adv-x="545" ><font-face
    font-family="Hanken Grotesk ExtraLight"
    units-per-em="1000"
    panose-1="0 0 0 0 0 0 0 0 0 0"
    ascent="1000"
    descent="-303"
    alphabetic="0" />
<glyph unicode=" " horiz-adv-x="260" />
<glyph unicode="!" horiz-adv-x="195" d="M81 191L77 697H120L115 191H81ZM72 0V99H123V0H72Z" />
<glyph unicode="&quot;" horiz-adv-x="289" d="M50 417V697H87V417H50ZM202 417V697H238V417H202Z" />
<glyph unicode="#" horiz-adv-x="678" d="M131 0L176 215H49V246H182L227 464H91V497H233L276 697H310L269 496H465L507 697H542L500 496H629V464H493L447 246H586V215H441L396 0H362L407 215H209L165 0H131ZM217 246H413L458 464H261L217 246Z" />
<glyph unicode="$" horiz-adv-x="546" d="M273 -112V0H300V-112H273ZM268 697V808H295V697H268ZM287 -8Q189 -8 126 43T49 180L91 190Q104 112 157 72T288 31Q335 31 373 51T433 105T455 183Q455 232 430 262T363 312T273 350Q223 369 181 392T113 448T88 534Q88
583 112 622T180 683T282 705Q344 705 391 677T467 596L433 574Q408 618 371 642T281 666Q236 666 202 649T149 603T130 535Q130 494 151 468T211 422T300 384Q356 363 400 339T471 278T497 186Q497 130 470 87T395 18T287 -8Z" />
<glyph unicode="%" horiz-adv-x="739" d="M123 0L580 697H614L157 0H123ZM532 -6Q489 -6 454 15T397 72T376 153Q376 198 397 233T453 290T531 311Q575 311 610 290T667 233T688 153Q688 110 667 74T611 16T532 -6ZM532 24Q567 24 595 41T640 87T657 153Q657 189
640 218T595 264T531 281Q497 281 469 264T423 218T406 153Q406 117 423 88T469 41T532 24ZM208 386Q165 386 130 407T73 464T51 544Q51 589 72 625T129 682T207 703Q250 703 285 682T342 624T363 544Q363 501 342 465T286 408T208 386ZM208 416Q243 416 271 433T315
480T332 544Q332 581 315 610T270 656T207 673Q172 673 144 656T98 610T81 544Q81 508 98 479T144 433T208 416Z" />
<glyph unicode="&amp;" horiz-adv-x="646" d="M261 -7Q199 -7 153 13T80 70T54 159Q54 203 71 236T118 296T184 343T258 384Q305 408 344 433T408 491T432 567Q432 609 405 639T316 669Q257 669 221 634T185 546Q185 516 196 489T225 435T265 381L232 363Q208
395 188 424T156 482T144 546Q144 593 166 628T228 683T316 703Q392 703 431 665T471 568Q471 513 443 474T370 407T277 353Q234 330 193 304T124 244T97 160Q97 100 141 65T261 30Q381 30 456 112T551 345L589 340Q575 228 532 151T420 33T261 -7ZM565 -30L249
347L281 368L594 -4L565 -30Z" />
<glyph unicode="&apos;" horiz-adv-x="137" d="M50 417V697H86V417H50Z" />
<glyph unicode="(" horiz-adv-x="182" d="M139 -204Q111 -162 90 -107T55 10T33 132T25 245Q25 319 37 400T74 558T140 697H180Q138 634 112 557T73 399T60 245Q60 193 67 132T90 10T128 -107T180 -204H139Z" />
<glyph unicode=")" horiz-adv-x="182" d="M43 -204H2Q32 -163 54 -108T91 9T114 132T122 245Q122 318 110 398T71 556T2 697H42Q83 635 108 558T145 400T157 245Q157 193 150 133T128 11T92 -106T43 -204Z" />
<glyph unicode="*" horiz-adv-x="378" d="M108 410L88 425L173 537L38 579L47 603L179 556L176 697H202L199 556L333 603L340 579L205 537L291 425L271 410L189 525L108 410Z" />
<glyph unicode="+" horiz-adv-x="561" d="M263 14V230H47V264H263V480H297V264H514V230H297V14H263Z" />
<glyph unicode="," horiz-adv-x="241" d="M31 -159L150 136H196L61 -159H31Z" />
<glyph unicode="-" horiz-adv-x="327" d="M40 296V328H288V296H40Z" />
<glyph unicode="." horiz-adv-x="239" d="M94 0V99H145V0H94Z" />
<glyph unicode="/" horiz-adv-x="382" d="M-42 -210L310 697H345L-8 -210H-42Z" />
<glyph unicode="0" horiz-adv-x="560" d="M283 -6Q233 -6 196 14T135 69T96 149T76 246T70 349Q70 401 76 452T95 549T133 629T192 684T278 704Q325 704 360 686T420 635T460 557T483 459T490 348Q490 290 483 238T461 141T422 63T363 12T283 -6ZM283 34Q340 34
376 73T430 184T448 346Q448 441 430 512T375 624T278 664Q231 664 199 639T148 570T121 469T113 348Q113 286 121 229T149 129T201 60T283 34Z" />
<glyph unicode="1" horiz-adv-x="560" d="M312 0V573L327 549H126V583H261Q286 583 299 593T312 629V697H353V0H312Z" />
<glyph unicode="2" horiz-adv-x="560" d="M57 0V43Q98 77 148 115T248 196T341 287T409 388T435 500Q435 575 393 619T274 663Q218 663 180 640T123 573T103 471L62 473Q62 524 76 566T117 639T184 686T275 703Q337 703 382 679T451 609T476 502Q476 442 453 387T389
283T298 189T194 106T92 31L101 39H505V0H57Z" />
<glyph unicode="3" horiz-adv-x="559" d="M275 -6Q203 -6 150 20T67 92T37 202L79 204Q79 126 132 80T276 34Q335 34 378 54T445 111T470 197Q470 243 450 273T395 320T318 345T231 352V385Q265 385 300 391T365 412T414 455T432 525Q432 566 412 597T356 645T273
663Q200 663 156 622T111 516L70 518Q70 573 96 614T168 679T274 703Q332 703 377 681T448 619T474 529Q474 489 460 462T424 416T375 388T323 373Q355 368 388 357T448 325T493 273T510 196Q510 136 481 91T398 20T275 -6Z" />
<glyph unicode="4" horiz-adv-x="560" d="M382 0V168H25V204L380 697H424V207H538V168H424V0H382ZM59 192L55 207H382V651L385 648L59 192Z" />
<glyph unicode="5" horiz-adv-x="560" d="M279 -6Q222 -6 175 18T95 86T50 188L91 195Q101 148 126 111T191 54T279 34Q336 34 379 61T446 133T470 232Q470 286 448 328T385 395T290 420Q240 420 196 397T120 327L73 342L134 697H480V658H149L172 675L119 366H111Q150
414 197 437T294 460Q358 460 407 430T485 349T513 232Q513 183 496 140T447 64T373 13T279 -6Z" />
<glyph unicode="6" horiz-adv-x="561" d="M338 697L156 388L151 395Q178 417 211 429T279 442Q341 442 391 412T472 331T503 219Q503 156 472 105T390 24T275 -6Q212 -6 160 24T77 105T46 218Q46 254 56 284T82 340L292 697H338ZM275 405Q225 405 183 381T115
314T89 219Q89 167 114 125T181 58T275 33Q326 33 368 58T435 125T461 220Q461 271 436 313T368 380T275 405Z" />
<glyph unicode="7" horiz-adv-x="560" d="M125 0L485 667L494 658H29V697H526V659L171 0H125Z" />
<glyph unicode="8" horiz-adv-x="560" d="M280 -6Q225 -6 174 16T90 83T57 194Q57 264 96 313T202 379Q155 395 127 435T98 533Q98 588 125 625T194 683T282 703Q334 703 375 681T440 620T464 528Q464 473 436 434T359 379Q426 362 464 312T503 194Q503 128 471
83T387 16T280 -6ZM280 33Q328 33 369 51T435 106T461 198Q461 247 438 283T374 340T280 361Q227 361 186 341T122 284T98 198Q98 143 124 107T191 52T280 33ZM283 392Q343 392 382 429T422 525Q422 587 384 625T282 664Q245 664 213 649T160 604T140 531Q140 468
179 430T283 392Z" />
<glyph unicode="9" horiz-adv-x="561" d="M215 0L398 309L403 302Q376 280 343 268T275 255Q213 255 162 285T81 366T51 478Q51 541 82 592T164 673T279 703Q342 703 394 673T477 593T508 479Q508 443 498 413T472 357L262 0H215ZM279 292Q330 292 372 316T439
383T465 478Q465 531 440 572T373 639T279 664Q228 664 186 639T119 572T93 477Q93 426 118 384T186 317T279 292Z" />
<glyph unicode=":" horiz-adv-x="239" d="M94 371V471H145V371H94ZM94 0V99H145V0H94Z" />
<glyph unicode=";" horiz-adv-x="240" d="M15 -159L135 129H181L46 -159H15ZM116 371V471H167V371H116Z" />
<glyph unicode="&lt;" horiz-adv-x="561" d="M506 30L47 228V264L506 464V427L71 240V253L506 66V30Z" />
<glyph unicode="=" horiz-adv-x="560" d="M91 322V356H470V322H91ZM91 138V172H470V138H91Z" />
<glyph unicode="&gt;" horiz-adv-x="561" d="M54 30V66L489 253V240L54 427V464L513 264V228L54 30Z" />
<glyph unicode="?" horiz-adv-x="493" d="M224 189V266Q224 302 237 326T270 366T314 397T358 429T392 469T405 529Q405 596 362 631T241 667Q169 667 125 629T79 520H42Q43 577 68 618T138 681T241 703Q302 703 347 683T417 625T442 529Q442 486 429 458T396
411T352 378T308 350T274 315T261 263V189H224ZM217 0V99H269V0H217Z" />
<glyph unicode="@" horiz-adv-x="849" d="M426 -102Q351 -102 285 -75T169 1T89 117T60 263Q60 342 88 408T167 524T284 601T426 629Q504 629 570 601T685 521T762 403T790 259Q790 203 778 160T738 91T664 65Q630 65 609 77T579 110T570 155V190L576 178Q552
115 506 89T414 63Q364 63 323 87T258 156T233 259Q233 319 257 363T323 433T414 458Q467 458 508 429T568 347L567 350L570 449H603V170Q603 133 618 116T667 98Q716 98 737 142T758 258Q758 330 733 391T662 499T557 571T425 597Q357 597 297 572T191 502T119
396T93 263Q93 190 119 130T191 25T298 -45T425 -70Q509 -70 590 -25L605 -54Q565 -77 519 -89T426 -102ZM420 96Q462 96 495 117T547 174T566 259Q566 308 547 345T496 403T420 424Q378 424 345 403T292 344T273 259Q273 212 292 175T344 117T420 96Z" />
<glyph unicode="A" horiz-adv-x="602" d="M30 0L280 697H320L572 0H524L301 640L77 0H30ZM138 193L151 232H450L464 193H138Z" />
<glyph unicode="B" horiz-adv-x="589" d="M91 0V697H290Q384 697 437 652T491 525Q491 468 465 427T390 368Q454 356 489 310T525 190Q525 97 469 49T305 0H91ZM134 40H303Q483 40 483 191Q483 263 444 302T335 342H134V40ZM134 381H313Q375 381 412 418T449 519Q449
585 407 621T290 657H134V381Z" />
<glyph unicode="C" horiz-adv-x="699" d="M373 -8Q279 -8 209 36T101 161T62 349Q62 456 100 536T209 660T373 705Q472 705 544 656T649 521L610 506Q582 578 522 621T373 664Q291 664 231 625T138 516T105 349Q105 253 137 182T230 72T373 33Q461 33 521 76T610
191L649 176Q616 91 544 42T373 -8Z" />
<glyph unicode="D" horiz-adv-x="689" d="M91 0V697H273Q442 697 534 605T626 343Q626 177 535 89T272 0H91ZM134 40H268Q370 40 440 73T546 174T582 344Q582 448 546 517T440 622T272 657H134V40Z" />
<glyph unicode="E" horiz-adv-x="588" d="M91 0V697H543V658H134V372H497V333H134V39H543V0H91Z" />
<glyph unicode="F" horiz-adv-x="570" d="M91 0V697H537V658H134V372H484V333H134V0H91Z" />
<glyph unicode="G" horiz-adv-x="725" d="M370 -8Q278 -8 209 36T101 161T62 349Q62 456 100 536T209 660T373 705Q472 705 544 656T649 521L610 506Q582 578 522 621T373 664Q291 664 231 625T138 516T105 349Q105 253 137 182T230 72T373 33Q413 33 455 44T532
83T588 158T610 277V340L621 312H430V351H649V0H610L606 161L613 156Q595 97 558 61T471 8T370 -8Z" />
<glyph unicode="H" horiz-adv-x="660" d="M91 0V697H134V375H526V697H569V0H526V335H134V0H91Z" />
<glyph unicode="I" horiz-adv-x="225" d="M91 0V697H134V0H91Z" />
<glyph unicode="J" horiz-adv-x="550" d="M255 -8Q162 -8 103 47T37 198L80 202Q85 120 132 77T255 33Q340 33 381 89T423 255V658H131V697H466V253Q466 169 442 111T370 23T255 -8Z" />
<glyph unicode="K" horiz-adv-x="605" d="M123 235V291L514 697H572L123 235ZM91 0V697H134V0H91ZM524 0L270 401L302 431L574 0H524Z" />
<glyph unicode="L" horiz-adv-x="485" d="M91 0V697H134V39H462V0H91Z" />
<glyph unicode="M" horiz-adv-x="818" d="M91 0V697H156L414 97H405L662 697H727V0H684V648H686L430 56H388L132 648H134V0H91Z" />
<glyph unicode="N" horiz-adv-x="659" d="M91 0V697H141L532 54H525V697H568V0H517L126 643H134V0H91Z" />
<glyph unicode="O" horiz-adv-x="747" d="M373 -8Q279 -8 209 36T101 161T62 348Q62 456 100 536T209 660T372 705Q467 705 537 661T646 536T685 348Q685 241 647 161T538 37T373 -8ZM372 33Q456 33 516 72T609 181T642 348Q642 445 609 515T516 625T373 664Q291
664 231 626T138 516T105 348Q105 252 137 181T230 72T372 33Z" />
<glyph unicode="P" horiz-adv-x="546" d="M91 0V697H274Q382 697 441 647T500 505Q500 413 441 363T274 312H133V0H91ZM133 351H271Q359 351 408 390T458 504Q458 579 409 618T271 658H133V351Z" />
<glyph unicode="Q" horiz-adv-x="761" d="M373 -8Q279 -8 209 36T101 161T62 348Q62 456 100 536T209 660T372 705Q467 705 537 661T646 536T685 348Q685 241 647 161T538 37T373 -8ZM673 -35L418 216L444 244L699 -9L673 -35ZM372 33Q456 33 516 72T609 181T642
348Q642 445 609 515T516 625T373 664Q291 664 231 626T138 516T105 348Q105 252 137 181T230 72T372 33Z" />
<glyph unicode="R" horiz-adv-x="584" d="M91 0V697H274Q349 697 399 675T475 611T500 508Q500 429 455 381T322 321Q308 320 290 320T257 319H134V0H91ZM492 0L305 327L349 332L541 0H492ZM134 358H271Q330 358 371 374T435 424T458 507Q458 559 436 592T371
641T271 658H134V358Z" />
<glyph unicode="S" horiz-adv-x="553" d="M287 -8Q190 -8 127 43T49 180L91 190Q104 112 157 72T288 31Q336 31 373 51T433 105T455 183Q455 232 430 262T364 312T274 350Q223 369 181 392T113 448T88 534Q88 583 112 622T181 683T282 705Q344 705 391 677T468
596L434 574Q409 618 372 642T281 666Q237 666 203 649T150 603T131 535Q131 494 152 468T212 422T300 384Q357 363 401 339T471 278T498 186Q498 130 471 87T396 18T287 -8Z" />
<glyph unicode="T" horiz-adv-x="594" d="M275 0V658H22V697H572V658H319V0H275Z" />
<glyph unicode="U" horiz-adv-x="651" d="M324 -8Q208 -8 146 59T83 252V697H126V256Q126 184 148 134T214 58T324 32Q392 32 436 58T503 136T525 260V697H568V257Q568 128 505 60T324 -8Z" />
<glyph unicode="V" horiz-adv-x="644" d="M304 0L28 697H75L327 51H318L569 697H616L342 0H304Z" />
<glyph unicode="W" horiz-adv-x="936" d="M232 0L35 697H80L258 62L446 661H490L679 62L856 697H901L703 0H657L465 610H472L279 0H232Z" />
<glyph unicode="X" horiz-adv-x="616" d="M32 0L279 353L37 697H89L308 384L527 697H578L337 353L585 0H533L307 320L82 0H32Z" />
<glyph unicode="Y" horiz-adv-x="583" d="M271 0V264L23 697H73L291 308L511 697H560L313 264V0H271Z" />
<glyph unicode="Z" horiz-adv-x="556" d="M37 0V41L467 669L472 658H61V697H509V657L82 34L77 39H520V0H37Z" />
<glyph unicode="[" horiz-adv-x="231" d="M58 -246V739H230V709H93V-216H230V-246H58Z" />
<glyph unicode="\" horiz-adv-x="407" d="M449 -210H414L62 697H96L449 -210Z" />
<glyph unicode="]" horiz-adv-x="231" d="M173 -246H1V-216H137V709H1V739H173V-246Z" />
<glyph unicode="^" horiz-adv-x="471" d="M30 233L209 697H261L441 233H395L228 675H241L75 233H30Z" />
<glyph unicode="_" horiz-adv-x="388" d="M0 -33V0H388V-33H0Z" />
<glyph unicode="`" horiz-adv-x="269" d="M175 557L60 697H105L209 557H175Z" />
<glyph unicode="a" horiz-adv-x="535" d="M417 0L415 126V306Q415 383 378 423T265 463Q216 463 178 444T106 380L76 405Q114 455 160 477T267 499Q359 499 408 450T457 306V0H417ZM232 -6Q178 -6 140 12T81 63T60 140Q60 178 74 205T112 248Q139 267 174 274T253
281H421V248H259Q223 248 192 242T139 221Q122 207 112 187T101 139Q101 89 137 59T236 28Q285 28 325 52T390 119T415 214L434 190Q432 130 403 86T330 18T232 -6Z" />
<glyph unicode="b" horiz-adv-x="599" d="M314 -6Q264 -6 223 15T153 72T111 157L124 162V0H83V697H124V331L113 338Q126 386 154 422T223 478T314 499Q377 499 428 467T509 378T539 247Q539 176 510 118T430 27T314 -6ZM308 33Q362 33 405 60T472 137T497 247Q497
309 473 357T405 433T308 461Q254 461 212 433T145 357T121 247Q121 186 145 137T211 61T308 33Z" />
<glyph unicode="c" horiz-adv-x="514" d="M275 -6Q225 -6 186 13T118 66T75 146T60 247Q60 301 75 347T118 427T185 480T275 499Q340 499 389 467T462 369L424 354Q407 407 368 435T275 463Q217 463 178 433T121 353T102 247Q102 190 120 141T178 61T275 31Q329
31 368 58T424 139L462 124Q439 60 391 27T275 -6Z" />
<glyph unicode="d" horiz-adv-x="600" d="M286 -6Q221 -6 170 27T89 118T60 247Q60 321 90 378T171 467T286 499Q336 499 376 479T445 422T486 339L475 331V697H516V0H475V162L488 157Q475 109 447 73T377 15T286 -6ZM292 33Q346 33 388 60T454 137T478 247Q478
309 454 357T388 433T292 461Q237 461 194 433T127 357T102 247Q102 186 126 138T194 61T292 33Z" />
<glyph unicode="e" horiz-adv-x="538" d="M279 -6Q227 -6 187 12T118 64T75 143T60 243Q60 297 74 343T116 425T182 479T271 499Q328 499 367 479T431 427T467 356T478 280Q478 269 478 257T476 238H102Q103 140 151 86T280 32Q330 32 365 47T435 99L465 73Q437
44 409 27T349 2T279 -6ZM437 260Q438 269 438 277T439 293Q439 321 430 351T401 406T350 447T272 463Q222 463 185 438T127 370T101 270H451L437 260Z" />
<glyph unicode="f" horiz-adv-x="323" d="M126 0V460H10V493H126V570Q126 618 141 647T183 689T248 703Q270 703 289 699T325 685L311 654Q298 660 284 663T251 667Q211 667 190 643T168 570V493H293V460H168V0H126Z" />
<glyph unicode="g" horiz-adv-x="501" d="M271 -211Q168 -211 108 -173T48 -64Q48 -60 48 -53T50 -39L156 52L175 42L91 -49Q90 -53 90 -57T90 -66Q90 -120 139 -149T271 -178Q337 -178 381 -155T425 -84Q425 -56 410 -39T367 -12T305 4T233 15Q188 22 150 34T88
68T64 129Q64 162 84 187T143 229L167 208Q134 197 120 179T105 135Q105 107 122 92T168 68T236 53Q279 46 320 39T394 19T446 -18T465 -79Q465 -143 412 -177T271 -211ZM256 171Q203 171 163 192T100 249T77 333Q77 382 100 419T163 478T255 499Q305 499 344 478T406
420T429 332Q429 284 407 248T346 191T256 171ZM254 206Q315 206 352 242T389 334Q389 392 352 428T255 465Q195 465 157 428T118 335Q118 279 155 243T254 206ZM399 414L370 435L462 517L483 490L399 414Z" />
<glyph unicode="h" horiz-adv-x="527" d="M83 0V697H124V369L115 365Q127 409 150 439T207 484T283 499Q363 499 406 450T450 302V0H408V289Q408 377 375 420T275 463Q207 463 166 410T124 243V0H83Z" />
<glyph unicode="i" horiz-adv-x="209" d="M84 0V493H125V0H84ZM78 596V697H130V596H78Z" />
<glyph unicode="j" horiz-adv-x="209" d="M42 -210Q28 -210 11 -207T-23 -199V-162Q-6 -167 7 -169T29 -172Q56 -172 70 -155T84 -97V493H125V-106Q125 -160 104 -185T42 -210ZM79 596V697H131V596H79Z" />
<glyph unicode="k" horiz-adv-x="505" d="M421 0L234 285L116 161V216L385 493H439L264 313L471 0H421ZM83 0V697H124V0H83Z" />
<glyph unicode="l" horiz-adv-x="250" d="M164 -6Q125 -6 104 19T82 98V697H123V105Q123 67 137 50T177 33Q188 33 200 35T226 42V6Q210 0 195 -3T164 -6Z" />
<glyph unicode="m" horiz-adv-x="812" d="M83 0V493H124V367H117Q125 400 140 425T175 466T220 491T273 499Q316 499 348 483T400 434T428 348L407 347Q419 396 441 430T497 481T575 499Q634 499 668 472T719 398T735 289V0H693V280Q693 335 681 376T642 440T566
463Q528 463 497 442T448 378T429 268V0H388V290Q388 379 356 421T262 463Q224 463 193 441T144 373T125 254V0H83Z" />
<glyph unicode="n" horiz-adv-x="527" d="M83 0V493H124V369L115 366Q127 410 150 439T208 484T283 499Q361 499 405 452T450 302V0H408V289Q408 378 375 420T275 463Q231 463 198 441T144 370T124 243V0H83Z" />
<glyph unicode="o" horiz-adv-x="582" d="M291 -6Q224 -6 172 26T90 115T60 247Q60 321 89 378T171 467T291 499Q359 499 411 467T492 378T521 247Q521 173 492 116T411 27T291 -6ZM291 31Q348 31 390 58T456 134T480 247Q480 311 456 359T390 435T291 462Q234
462 192 435T126 360T102 247Q102 183 125 135T191 59T291 31Z" />
<glyph unicode="p" horiz-adv-x="599" d="M83 -204V493H124V331L112 340Q125 390 154 425T224 480T314 499Q379 499 430 466T510 376T539 246Q539 172 509 115T428 26T314 -6Q264 -6 223 14T154 69T113 151L124 162V-204H83ZM308 32Q362 32 405 60T472 136T497
246Q497 308 473 356T405 432T308 460Q254 460 212 433T145 357T121 246Q121 185 145 137T211 60T308 32Z" />
<glyph unicode="q" horiz-adv-x="600" d="M475 -204V162L486 151Q474 105 446 70T377 14T286 -6Q222 -6 171 26T90 115T60 246Q60 318 89 375T169 466T286 499Q336 499 376 480T445 424T487 340L475 331V493H516V-204H475ZM292 32Q346 32 388 60T454 136T478 246Q478
308 454 356T388 432T292 460Q237 460 194 433T127 356T102 246Q102 185 126 137T194 60T292 32Z" />
<glyph unicode="r" horiz-adv-x="386" d="M83 0V493H124V363L114 361Q124 409 152 439T215 484T283 499Q302 499 321 496T358 483L336 446Q324 451 309 454T276 458Q249 458 220 447T168 413T133 349Q129 334 127 313T124 250V0H83Z" />
<glyph unicode="s" horiz-adv-x="463" d="M234 -6Q186 -6 147 9T81 50T38 109L68 133Q86 87 130 59T235 30Q292 30 328 56T364 131Q364 170 343 191T288 224T217 245Q187 252 160 261T111 285T78 320T65 374Q65 429 108 464T222 499Q275 499 319 475T387 402L359
383Q337 426 302 445T221 465Q170 465 137 441T104 378Q104 348 119 330T163 302T228 282Q261 274 292 265T349 240T389 200T405 135Q405 93 384 61T325 12T234 -6Z" />
<glyph unicode="t" horiz-adv-x="323" d="M221 -6Q191 -6 169 6T136 44T125 105V644L167 670V115Q167 74 182 52T231 29Q243 29 258 31T289 39V5Q271 0 255 -3T221 -6ZM10 460V493H289V460H10Z" />
<glyph unicode="u" horiz-adv-x="527" d="M243 -6Q192 -6 154 15T97 80T77 191V493H118V204Q118 145 133 107T178 50T251 31Q298 31 332 53T384 120T402 237V493H443V0H402V124H411Q393 57 348 26T243 -6Z" />
<glyph unicode="v" horiz-adv-x="511" d="M236 0L34 493H81L255 52L429 493H476L274 0H236Z" />
<glyph unicode="w" horiz-adv-x="745" d="M180 0L40 493H85L203 61L353 493H394L542 62L661 493H705L566 0H523L373 438L222 0H180Z" />
<glyph unicode="x" horiz-adv-x="503" d="M38 0L224 247L38 493H89L251 277L414 493H464L278 247L465 0H414L251 217L89 0H38Z" />
<glyph unicode="y" horiz-adv-x="511" d="M146 -203L233 9L34 493H81L255 52L429 493H476L191 -203H146Z" />
<glyph unicode="z" horiz-adv-x="475" d="M42 0V35L390 463L392 458H59V493H431V455L84 25L82 35H427V0H42Z" />
<glyph unicode="{" horiz-adv-x="211" d="M169 -245Q116 -245 90 -216T63 -130V151Q63 175 57 190T39 215T6 227V267Q26 270 38 279T57 303T63 342V623Q63 681 89 709T169 738H210V709H180Q138 709 119 688T99 623V341Q99 302 85 281T41 250V243Q71 234 85 213T99
152V-130Q99 -173 118 -194T180 -216H210V-245H169Z" />
<glyph unicode="|" horiz-adv-x="227" d="M97 -254V746H130V-254H97Z" />
<glyph unicode="}" horiz-adv-x="211" d="M42 -245H1V-216H31Q74 -216 93 -195T112 -130V152Q112 191 126 212T170 243V250Q141 260 127 281T112 341V623Q112 666 93 687T31 709H1V738H42Q95 738 121 710T148 623V342Q148 319 154 304T173 279T205 267V227Q186
224 173 215T154 191T148 151V-130Q148 -187 122 -216T42 -245Z" />
<glyph unicode="~" horiz-adv-x="560" d="M368 168Q338 168 319 180T286 212T260 250T232 281T192 294Q158 294 139 266T119 189H85Q85 251 113 288T192 326Q222 326 242 313T276 281T303 243T330 211T368 198Q402 198 422 231T443 315H477Q477 250 448 209T368 168Z" />
<glyph unicode="&#xa0;" horiz-adv-x="260" />
<glyph unicode="&#xa1;" horiz-adv-x="195" d="M114 302L118 -204H76L80 302H114ZM123 493V394H72V493H123Z" />
<glyph unicode="&#xa2;" horiz-adv-x="506" d="M262 -113V0H288V-113H262ZM262 493V601H288V493H262ZM276 -6Q226 -6 187 13T119 66T76 146T61 247Q61 301 76 347T119 427T186 480T276 499Q341 499 390 467T463 369L425 354Q408 407 369 435T276 463Q218 463 179
433T122 353T103 247Q103 190 121 141T179 61T276 31Q330 31 369 58T425 139L463 124Q440 60 392 27T276 -6Z" />
<glyph unicode="&#xa3;" horiz-adv-x="550" d="M50 0V49Q93 59 124 81T173 135T191 202Q191 239 176 275T146 349H54V386H138Q130 410 124 438T118 497Q118 556 143 602T212 674T314 701Q382 701 433 664T507 558L472 545Q453 603 412 634T315 665Q268 665 232
644T175 584T154 497Q154 468 160 439T175 386H393V349H183Q197 313 212 278T227 201Q227 157 211 127T170 78T120 49T80 37L86 36H499V0H50Z" />
<glyph unicode="&#xa4;" horiz-adv-x="594" d="M88 79L65 104L130 169Q103 200 89 237T75 313Q75 355 90 392T130 459L65 523L89 547L153 482Q216 537 299 537Q336 537 374 525T444 482L508 547L533 523L467 459Q495 429 509 391T523 313Q523 277 510 239T467
168L533 104L509 79L444 145Q413 118 376 104T299 90Q259 90 222 104T153 145L88 79ZM298 123Q350 123 393 149T463 218T489 314Q489 366 463 409T394 478T299 504Q247 504 204 478T134 409T108 313Q108 261 134 218T203 149T298 123Z" />
<glyph unicode="&#xa5;" horiz-adv-x="604" d="M281 0V114H92V148H281V261H92V296H264L27 697H74L302 306L531 697H578L342 296H513V261H325V148H513V114H325V0H281Z" />
<glyph unicode="&#xa6;" horiz-adv-x="227" d="M97 330V746H130V330H97ZM97 -254V155H130V-254H97Z" />
<glyph unicode="&#xa7;" horiz-adv-x="544" d="M271 -182Q208 -182 161 -157T80 -74L116 -52Q143 -98 181 -120T272 -143Q314 -143 346 -126T398 -79T417 -12Q417 31 394 57T332 102T249 138Q214 151 179 167T114 204T68 257T50 335Q50 372 63 405T100 463Q93
477 89 494T85 531Q85 583 110 621T177 681T273 703Q337 703 385 678T464 596L429 573Q402 619 364 641T272 664Q231 664 198 647T147 601T128 533Q128 490 152 463T215 419T297 384Q332 371 367 355T431 317T477 264T494 187Q494 148 481 115T444 58Q452 44 456
27T460 -10Q460 -61 435 -100T367 -160T271 -182ZM416 89Q452 127 452 183Q452 233 427 263T360 313T270 351Q244 362 217 373T167 399T128 433Q111 414 102 390T93 338Q93 301 108 275T149 230T208 198T275 170Q314 155 352 138T416 89Z" />
<glyph unicode="&#xa8;" horiz-adv-x="345" d="M233 596V697H285V596H233ZM60 596V697H112V596H60Z" />
<glyph unicode="&#xa9;" horiz-adv-x="827" d="M414 -5Q341 -5 277 22T164 98T88 211T60 349Q60 422 87 486T163 598T276 674T414 702Q487 702 551 675T663 599T739 486T767 349Q767 276 740 212T664 99T551 23T414 -5ZM414 109Q352 109 307 140T237 225T212 347Q212
409 235 464T302 553T413 588Q475 588 522 556T595 465L562 452Q542 499 503 527T413 556Q358 556 322 527T267 449T248 347Q248 293 266 246T322 171T414 142Q465 142 503 169T557 245L590 232Q569 172 523 141T414 109ZM414 18Q483 18 542 44T647 115T718 220T744
349Q744 418 718 477T647 582T543 653T414 679Q346 679 286 653T180 582T109 478T83 349Q83 281 109 221T180 115T285 44T414 18Z" />
<glyph unicode="&#xaa;" horiz-adv-x="486" d="M209 346Q157 346 125 374T92 448Q92 499 129 524T226 549H345Q345 554 345 560T345 572Q343 623 316 650T238 678Q199 678 173 663T126 618L105 633Q132 671 163 687T236 703Q301 703 336 668T371 565V352H346V430Q297
346 209 346ZM214 372Q257 372 289 395T342 460Q343 476 344 491T345 524H227Q176 524 149 504T121 448Q121 412 147 392T214 372Z" />
<glyph unicode="&#xab;" horiz-adv-x="402" d="M387 78L187 253L387 426V381L238 253L387 124V78ZM203 78L3 253L203 426V381L53 253L203 124V78Z" />
<glyph unicode="&#xac;" horiz-adv-x="560" d="M429 8V231H30V265H464V8H429Z" />
<glyph unicode="&#xad;" horiz-adv-x="327" d="M40 296V328H288V296H40Z" />
<glyph unicode="&#xae;" horiz-adv-x="621" d="M310 193Q240 193 182 226T90 318T55 448Q55 520 89 578T182 669T310 703Q381 703 438 670T530 578T565 448Q565 376 531 318T439 227T310 193ZM310 216Q374 216 427 246T511 329T542 448Q542 514 511 566T427 650T310
681Q246 681 194 650T110 567T78 448Q78 382 109 330T193 247T310 216ZM238 303V593H316Q364 593 388 572T412 514Q412 479 391 460T335 437L425 303H399L313 435H260V303H238ZM261 455H314Q348 455 368 469T389 514Q389 544 369 558T314 573H261V455Z" />
<glyph unicode="&#xaf;" horiz-adv-x="388" d="M60 617V644H328V617H60Z" />
<glyph unicode="&#xb0;" horiz-adv-x="413" d="M207 422Q169 422 137 441T85 492T66 563Q66 601 85 633T136 684T207 703Q245 703 277 684T328 633T347 563Q347 525 328 493T277 442T207 422ZM207 452Q238 452 262 467T302 507T317 563Q317 594 302 619T263 658T207
673Q177 673 152 659T111 619T96 563Q96 533 111 508T151 467T207 452Z" />
<glyph unicode="&#xb1;" horiz-adv-x="560" d="M263 109V291H31V326H263V505H297V326H529V291H297V109H263ZM31 -13V22H529V-13H31Z" />
<glyph unicode="&#xb2;" horiz-adv-x="402" d="M55 488V514Q96 540 138 569T217 633T276 705T299 787Q299 830 275 856T204 882Q172 882 149 868T114 829T101 767L76 769Q76 809 91 840T134 888T204 906Q258 906 291 875T325 786Q325 742 305 704T251 632T176
569T94 515L90 512H348V488H55Z" />
<glyph unicode="&#xb3;" horiz-adv-x="402" d="M197 483Q156 483 124 497T74 540T56 606L81 608Q81 560 113 533T198 506Q247 506 280 532T314 604Q314 642 292 661T237 688T176 695V714Q205 714 231 721T275 746T292 795Q292 833 264 856T197 880Q155 880 128
856T100 792L75 793Q75 844 109 874T196 904Q230 904 257 891T300 855T317 800Q317 771 304 752T272 722T233 707Q258 703 282 691T323 658T339 602Q339 565 321 539T270 498T197 483Z" />
<glyph unicode="&#xb4;" horiz-adv-x="272" d="M60 557L167 697H212L94 557H60Z" />
<glyph unicode="&#xb5;" horiz-adv-x="527" d="M77 -176V493H118V189Q118 139 132 104T177 50T254 31Q303 31 335 54T385 118T402 214V493H443V0H402V96Q383 48 342 21T244 -6Q196 -6 164 14T118 75V-176H77Z" />
<glyph unicode="&#xb6;" horiz-adv-x="528" d="M268 -121V307Q211 307 160 330T77 397T45 502Q45 564 77 607T160 674T268 697H295V-121H268ZM404 -121V697H431V-121H404Z" />
<glyph unicode="&#xb7;" horiz-adv-x="285" d="M109 299V398H160V299H109Z" />
<glyph unicode="&#xb8;" horiz-adv-x="312" d="M154 -254Q124 -254 98 -236T60 -190L86 -179Q93 -199 112 -212T156 -226Q188 -226 206 -210T224 -164Q224 -133 199 -116T132 -95Q123 -94 109 -94T86 -93L138 0H166L124 -73Q131 -73 138 -73T159 -76Q206 -84 228
-106T251 -162Q251 -190 240 -210T206 -242T154 -254Z" />
<glyph unicode="&#xb9;" horiz-adv-x="242" d="M136 488V828L146 813H29V834H105Q137 834 137 862V902H161V488H136Z" />
<glyph unicode="&#xba;" horiz-adv-x="515" d="M258 355Q210 355 173 378T114 441T92 529Q92 578 113 617T173 679T258 703Q305 703 342 680T400 618T422 529Q422 480 401 441T342 378T258 355ZM258 381Q298 381 328 400T376 453T393 529Q393 571 376 605T329
658T258 677Q217 677 187 658T139 605T121 529Q121 487 138 454T186 401T258 381Z" />
<glyph unicode="&#xbb;" horiz-adv-x="391" d="M3 78V124L152 253L3 381V426L203 253L3 78ZM187 78V124L337 253L187 381V426L387 253L187 78Z" />
<glyph unicode="&#xbc;" horiz-adv-x="647" d="M130 279V620L141 603H19V629H97Q112 629 121 635T130 659V697H161V279H130ZM97 0L477 697H510L130 0H97ZM521 0V101H310V126L521 418H553V129H621V101H553V0H521ZM337 118L334 129H521V383L524 382L337 118Z" />
<glyph unicode="&#xbd;" horiz-adv-x="683" d="M130 279V620L141 603H19V629H97Q112 629 121 635T130 659V697H161V279H130ZM97 0L477 697H510L130 0H97ZM379 0V29Q409 53 447 82T520 145T579 217T602 298Q602 341 578 366T511 391Q477 391 456 377T423 338T412
280L382 282Q382 322 397 353T441 403T511 421Q566 421 599 388T633 299Q633 255 612 216T557 141T483 76T406 21L413 29H651V0H379Z" />
<glyph unicode="&#xbe;" horiz-adv-x="742" d="M177 275Q111 275 72 310T33 402L64 403Q64 358 95 332T178 305Q227 305 258 330T289 399Q289 444 253 465T152 488V513Q178 513 205 519T249 543T267 592Q267 627 241 649T176 671Q137 671 111 650T83 587L52 588Q52
638 87 669T177 701Q229 701 263 671T298 595Q298 557 274 534T212 503Q238 500 262 488T303 454T320 399Q320 344 280 310T177 275ZM193 0L573 697H606L226 0H193ZM617 0V101H406V126L617 418H649V129H717V101H649V0H617ZM433 118L430 129H617V383L620 382L433
118Z" />
<glyph unicode="&#xbf;" horiz-adv-x="281" d="M224 304V227Q224 191 211 167T178 127T134 96T91 64T57 24T43 -36Q43 -102 86 -138T207 -174Q279 -174 323 -136T369 -27H407Q407 -84 381 -125T311 -188T207 -210Q147 -210 102 -190T31 -132T6 -36Q6 8 19 35T53
82T97 115T140 143T174 178T187 230V304H224ZM231 493V394H180V493H231Z" />
<glyph unicode="&#xc0;" horiz-adv-x="602" d="M30 0L280 697H320L572 0H524L301 640L77 0H30ZM138 193L151 232H450L464 193H138ZM284 761L169 901H214L318 761H284Z" />
<glyph unicode="&#xc1;" horiz-adv-x="602" d="M30 0L280 697H320L572 0H524L301 640L77 0H30ZM138 193L151 232H450L464 193H138ZM284 761L391 901H436L318 761H284Z" />
<glyph unicode="&#xc2;" horiz-adv-x="602" d="M30 0L280 697H320L572 0H524L301 640L77 0H30ZM138 193L151 232H450L464 193H138ZM155 757L301 906L447 757H407L301 867L195 757H155Z" />
<glyph unicode="&#xc3;" horiz-adv-x="602" d="M30 0L280 697H320L572 0H524L301 640L77 0H30ZM138 193L151 232H450L464 193H138ZM371 744Q346 744 330 754T304 781T284 813T262 839T230 850Q203 850 188 825T172 757H145Q145 813 168 844T232 876Q255 876 270
866T295 839T316 807T339 781T372 770Q395 770 410 798T426 871H454Q454 813 432 779T371 744Z" />
<glyph unicode="&#xc4;" horiz-adv-x="602" d="M30 0L280 697H320L572 0H524L301 640L77 0H30ZM138 193L151 232H450L464 193H138ZM362 800V901H414V800H362ZM189 800V901H241V800H189Z" />
<glyph unicode="&#xc5;" horiz-adv-x="602" d="M30 0L280 697H320L572 0H524L301 640L77 0H30ZM138 193L151 232H450L464 193H138ZM302 675Q276 675 256 687T225 719T213 762Q213 787 225 807T257 838T301 850Q325 850 345 838T377 807T389 762Q389 738 377 719T346
687T302 675ZM301 701Q327 701 345 718T364 762Q364 789 346 807T301 825Q275 825 257 807T239 762Q239 736 257 719T301 701Z" />
<glyph unicode="&#xc6;" horiz-adv-x="861" d="M30 0L280 697H816V658H427V371H765V331H427V39H816V0H382V659H308L77 0H30ZM136 193L150 234H395V193H136Z" />
<glyph unicode="&#xc7;" horiz-adv-x="699" d="M373 -8Q279 -8 209 36T101 161T62 349Q62 456 100 536T209 660T373 705Q472 705 544 656T649 521L610 506Q582 578 522 621T373 664Q291 664 231 625T138 516T105 349Q105 253 137 182T230 72T373 33Q461 33 521
76T610 191L649 176Q616 91 544 42T373 -8ZM347 -204Q329 -204 311 -199T278 -184T254 -159L273 -143Q283 -160 303 -170T347 -180Q379 -180 397 -168T415 -130Q415 -112 403 -102T373 -87T334 -79T299 -77L354 5H383L338 -58Q383 -63 413 -79T443 -130Q443 -164
417 -184T347 -204Z" />
<glyph unicode="&#xc8;" horiz-adv-x="588" d="M91 0V697H543V658H134V372H497V333H134V39H543V0H91ZM300 761L185 901H230L334 761H300Z" />
<glyph unicode="&#xc9;" horiz-adv-x="588" d="M91 0V697H543V658H134V372H497V333H134V39H543V0H91ZM301 761L408 901H453L335 761H301Z" />
<glyph unicode="&#xca;" horiz-adv-x="588" d="M91 0V697H543V658H134V372H497V333H134V39H543V0H91ZM172 757L318 906L464 757H424L318 867L212 757H172Z" />
<glyph unicode="&#xcb;" horiz-adv-x="588" d="M91 0V697H543V658H134V372H497V333H134V39H543V0H91ZM378 800V901H430V800H378ZM205 800V901H257V800H205Z" />
<glyph unicode="&#xcc;" horiz-adv-x="225" d="M91 0V697H134V0H91ZM95 761L-20 901H25L129 761H95Z" />
<glyph unicode="&#xcd;" horiz-adv-x="225" d="M91 0V697H134V0H91ZM96 761L203 901H248L130 761H96Z" />
<glyph unicode="&#xce;" horiz-adv-x="225" d="M91 0V697H134V0H91ZM-33 757L113 906L259 757H221L113 867L5 757H-33Z" />
<glyph unicode="&#xcf;" horiz-adv-x="225" d="M91 0V697H134V0H91ZM173 800V901H225V800H173ZM0 800V901H52V800H0Z" />
<glyph unicode="&#xd0;" horiz-adv-x="689" d="M91 0V697H273Q442 697 534 605T626 343Q626 177 535 89T272 0H91ZM134 40H268Q370 40 440 73T546 174T582 344Q582 448 546 517T440 622T272 657H134V40ZM275 334V364H517V334H275Z" />
<glyph unicode="&#xd1;" horiz-adv-x="659" d="M91 0V697H141L532 54H525V697H568V0H517L126 643H134V0H91ZM393 744Q368 744 352 754T326 781T306 813T284 839T252 850Q225 850 210 825T194 757H167Q167 813 190 844T254 876Q277 876 292 866T317 839T338 807T361
781T394 770Q417 770 432 798T448 871H476Q476 813 454 779T393 744Z" />
<glyph unicode="&#xd2;" horiz-adv-x="747" d="M373 -8Q279 -8 209 36T101 161T62 348Q62 456 100 536T209 660T372 705Q467 705 537 661T646 536T685 348Q685 241 647 161T538 37T373 -8ZM372 33Q456 33 516 72T609 181T642 348Q642 445 609 515T516 625T373
664Q291 664 231 626T138 516T105 348Q105 252 137 181T230 72T372 33ZM356 761L241 901H286L390 761H356Z" />
<glyph unicode="&#xd3;" horiz-adv-x="747" d="M373 -8Q279 -8 209 36T101 161T62 348Q62 456 100 536T209 660T372 705Q467 705 537 661T646 536T685 348Q685 241 647 161T538 37T373 -8ZM372 33Q456 33 516 72T609 181T642 348Q642 445 609 515T516 625T373
664Q291 664 231 626T138 516T105 348Q105 252 137 181T230 72T372 33ZM357 761L464 901H509L391 761H357Z" />
<glyph unicode="&#xd4;" horiz-adv-x="747" d="M373 -8Q279 -8 209 36T101 161T62 348Q62 456 100 536T209 660T372 705Q467 705 537 661T646 536T685 348Q685 241 647 161T538 37T373 -8ZM372 33Q456 33 516 72T609 181T642 348Q642 445 609 515T516 625T373
664Q291 664 231 626T138 516T105 348Q105 252 137 181T230 72T372 33ZM228 757L374 906L520 757H480L374 867L268 757H228Z" />
<glyph unicode="&#xd5;" horiz-adv-x="747" d="M373 -8Q279 -8 209 36T101 161T62 348Q62 456 100 536T209 660T372 705Q467 705 537 661T646 536T685 348Q685 241 647 161T538 37T373 -8ZM372 33Q456 33 516 72T609 181T642 348Q642 445 609 515T516 625T373
664Q291 664 231 626T138 516T105 348Q105 252 137 181T230 72T372 33ZM444 744Q419 744 403 754T377 781T357 813T335 839T303 850Q276 850 261 825T245 757H218Q218 813 241 844T305 876Q328 876 343 866T368 839T389 807T412 781T445 770Q468 770 483 798T499
871H527Q527 813 505 779T444 744Z" />
<glyph unicode="&#xd6;" horiz-adv-x="747" d="M373 -8Q279 -8 209 36T101 161T62 348Q62 456 100 536T209 660T372 705Q467 705 537 661T646 536T685 348Q685 241 647 161T538 37T373 -8ZM372 33Q456 33 516 72T609 181T642 348Q642 445 609 515T516 625T373
664Q291 664 231 626T138 516T105 348Q105 252 137 181T230 72T372 33ZM434 800V901H486V800H434ZM261 800V901H313V800H261Z" />
<glyph unicode="&#xd7;" horiz-adv-x="560" d="M117 56L91 82L254 246L90 412L116 438L280 272L446 438L472 411L307 246L472 82L446 56L280 220L117 56Z" />
<glyph unicode="&#xd8;" horiz-adv-x="747" d="M373 -8Q279 -8 209 36T101 161T62 348Q62 456 100 536T209 660T372 705Q467 705 537 661T646 536T685 348Q685 241 647 161T538 37T373 -8ZM372 33Q456 33 516 72T609 181T642 348Q642 445 609 515T516 625T373
664Q291 664 231 626T138 516T105 348Q105 252 137 181T230 72T372 33ZM124 0L592 697H623L156 0H124Z" />
<glyph unicode="&#xd9;" horiz-adv-x="651" d="M324 -8Q208 -8 146 59T83 252V697H126V256Q126 184 148 134T214 58T324 32Q392 32 436 58T503 136T525 260V697H568V257Q568 128 505 60T324 -8ZM308 761L193 901H238L342 761H308Z" />
<glyph unicode="&#xda;" horiz-adv-x="651" d="M324 -8Q208 -8 146 59T83 252V697H126V256Q126 184 148 134T214 58T324 32Q392 32 436 58T503 136T525 260V697H568V257Q568 128 505 60T324 -8ZM308 761L415 901H460L342 761H308Z" />
<glyph unicode="&#xdb;" horiz-adv-x="651" d="M324 -8Q208 -8 146 59T83 252V697H126V256Q126 184 148 134T214 58T324 32Q392 32 436 58T503 136T525 260V697H568V257Q568 128 505 60T324 -8ZM179 757L325 906L471 757H431L325 867L219 757H179Z" />
<glyph unicode="&#xdc;" horiz-adv-x="651" d="M324 -8Q208 -8 146 59T83 252V697H126V256Q126 184 148 134T214 58T324 32Q392 32 436 58T503 136T525 260V697H568V257Q568 128 505 60T324 -8ZM386 800V901H438V800H386ZM213 800V901H265V800H213Z" />
<glyph unicode="&#xdd;" horiz-adv-x="583" d="M271 0V264L23 697H73L291 308L511 697H560L313 264V0H271ZM275 761L382 901H427L309 761H275Z" />
<glyph unicode="&#xde;" horiz-adv-x="627" d="M140 0V697H180V595H327Q430 595 488 545T547 403Q547 312 487 261T319 210H180V0H140ZM180 247H319Q409 247 458 287T507 402Q507 478 458 519T319 560H180V247Z" />
<glyph unicode="&#xdf;" horiz-adv-x="618" d="M401 -6Q355 -6 315 10T246 54T204 119L239 135Q249 105 271 81T327 44T401 30Q461 30 494 57T528 131Q528 165 512 185T469 217T410 237T345 253T285 274T242 311T225 373Q225 415 241 438T282 475T336 495T389
510T431 532T447 573Q447 601 427 621T375 652T306 664Q252 664 218 651T165 617T138 570T128 521T126 478V0H83V478Q83 520 91 559T122 631T189 683T303 703Q356 703 397 687T463 642T487 574Q487 539 471 520T430 490T377 472T324 454T282 425T266 373Q266 343
282 326T326 299T385 282T450 266T510 242T553 202T569 135Q569 101 557 75T521 30T468 3T401 -6Z" />
<glyph unicode="&#xe0;" horiz-adv-x="535" d="M417 0L415 126V306Q415 383 378 423T265 463Q216 463 178 444T106 380L76 405Q114 455 160 477T267 499Q359 499 408 450T457 306V0H417ZM232 -6Q178 -6 140 12T81 63T60 140Q60 178 74 205T112 248Q139 267 174
274T253 281H421V248H259Q223 248 192 242T139 221Q122 207 112 187T101 139Q101 89 137 59T236 28Q285 28 325 52T390 119T415 214L434 190Q432 130 403 86T330 18T232 -6ZM256 557L141 697H186L290 557H256Z" />
<glyph unicode="&#xe1;" horiz-adv-x="535" d="M417 0L415 126V306Q415 383 378 423T265 463Q216 463 178 444T106 380L76 405Q114 455 160 477T267 499Q359 499 408 450T457 306V0H417ZM232 -6Q178 -6 140 12T81 63T60 140Q60 178 74 205T112 248Q139 267 174
274T253 281H421V248H259Q223 248 192 242T139 221Q122 207 112 187T101 139Q101 89 137 59T236 28Q285 28 325 52T390 119T415 214L434 190Q432 130 403 86T330 18T232 -6ZM256 557L363 697H408L290 557H256Z" />
<glyph unicode="&#xe2;" horiz-adv-x="535" d="M417 0L415 126V306Q415 383 378 423T265 463Q216 463 178 444T106 380L76 405Q114 455 160 477T267 499Q359 499 408 450T457 306V0H417ZM232 -6Q178 -6 140 12T81 63T60 140Q60 178 74 205T112 248Q139 267 174
274T253 281H421V248H259Q223 248 192 242T139 221Q122 207 112 187T101 139Q101 89 137 59T236 28Q285 28 325 52T390 119T415 214L434 190Q432 130 403 86T330 18T232 -6ZM127 553L273 702L419 553H381L273 663L165 553H127Z" />
<glyph unicode="&#xe3;" horiz-adv-x="535" d="M417 0L415 126V306Q415 383 378 423T265 463Q216 463 178 444T106 380L76 405Q114 455 160 477T267 499Q359 499 408 450T457 306V0H417ZM232 -6Q178 -6 140 12T81 63T60 140Q60 178 74 205T112 248Q139 267 174
274T253 281H421V248H259Q223 248 192 242T139 221Q122 207 112 187T101 139Q101 89 137 59T236 28Q285 28 325 52T390 119T415 214L434 190Q432 130 403 86T330 18T232 -6ZM344 578Q313 578 295 592T266 625T241 658T203 673Q176 673 161 651T145 589H118Q118
642 141 672T205 702Q234 702 250 688T279 654T306 621T345 606Q368 606 383 631T399 697H427Q427 643 405 611T344 578Z" />
<glyph unicode="&#xe4;" horiz-adv-x="535" d="M417 0L415 126V306Q415 383 378 423T265 463Q216 463 178 444T106 380L76 405Q114 455 160 477T267 499Q359 499 408 450T457 306V0H417ZM232 -6Q178 -6 140 12T81 63T60 140Q60 178 74 205T112 248Q139 267 174
274T253 281H421V248H259Q223 248 192 242T139 221Q122 207 112 187T101 139Q101 89 137 59T236 28Q285 28 325 52T390 119T415 214L434 190Q432 130 403 86T330 18T232 -6ZM334 596V697H386V596H334ZM161 596V697H213V596H161Z" />
<glyph unicode="&#xe5;" horiz-adv-x="535" d="M417 0L415 126V306Q415 383 378 423T265 463Q216 463 178 444T106 380L76 405Q114 455 160 477T267 499Q359 499 408 450T457 306V0H417ZM232 -6Q178 -6 140 12T81 63T60 140Q60 178 74 205T112 248Q139 267 174
274T253 281H421V248H259Q223 248 192 242T139 221Q122 207 112 187T101 139Q101 89 137 59T236 28Q285 28 325 52T390 119T415 214L434 190Q432 130 403 86T330 18T232 -6ZM274 546Q248 546 228 558T197 590T185 633Q185 658 197 678T229 709T273 721Q297 721
317 709T349 678T361 633Q361 609 349 590T318 558T274 546ZM273 572Q299 572 317 589T336 633Q336 660 318 678T273 696Q247 696 229 678T211 633Q211 607 229 590T273 572Z" />
<glyph unicode="&#xe6;" horiz-adv-x="887" d="M227 -6Q149 -6 105 33T60 138Q60 173 72 196T106 235T156 257T216 268T279 272H416V306Q416 383 378 423T266 463Q217 463 179 444T108 380L77 405Q118 457 164 478T270 499Q345 499 389 463T444 358Q465 422 511
460T623 498Q680 498 719 479T782 428T816 358T827 283Q827 270 827 258T824 238H455Q456 138 503 86T629 33Q678 33 713 47T785 99L815 73Q786 43 758 26T699 1T627 -6Q550 -6 498 39T430 163H424Q400 75 351 35T227 -6ZM231 30Q276 30 315 49T381 114T416 233V241H282Q188
241 145 217T102 138Q102 89 136 60T231 30ZM454 270H787Q790 303 782 337T754 399T702 445T623 463Q573 463 536 438T478 369T454 270Z" />
<glyph unicode="&#xe7;" horiz-adv-x="514" d="M275 -6Q225 -6 186 13T118 66T75 146T60 247Q60 301 75 347T118 427T185 480T275 499Q340 499 389 467T462 369L424 354Q407 407 368 435T275 463Q217 463 178 433T121 353T102 247Q102 190 120 141T178 61T275
31Q329 31 368 58T424 139L462 124Q439 60 391 27T275 -6ZM267 -204Q249 -204 231 -199T198 -184T174 -159L193 -143Q203 -160 223 -170T267 -180Q299 -180 317 -168T335 -130Q335 -112 323 -102T293 -87T254 -79T219 -77L274 5H303L258 -58Q303 -63 333 -79T363
-130Q363 -164 337 -184T267 -204Z" />
<glyph unicode="&#xe8;" horiz-adv-x="538" d="M279 -6Q227 -6 187 12T118 64T75 143T60 243Q60 297 74 343T116 425T182 479T271 499Q328 499 367 479T431 427T467 356T478 280Q478 269 478 257T476 238H102Q103 140 151 86T280 32Q330 32 365 47T435 99L465
73Q437 44 409 27T349 2T279 -6ZM437 260Q438 269 438 277T439 293Q439 321 430 351T401 406T350 447T272 463Q222 463 185 438T127 370T101 270H451L437 260ZM254 557L139 697H184L288 557H254Z" />
<glyph unicode="&#xe9;" horiz-adv-x="538" d="M279 -6Q227 -6 187 12T118 64T75 143T60 243Q60 297 74 343T116 425T182 479T271 499Q328 499 367 479T431 427T467 356T478 280Q478 269 478 257T476 238H102Q103 140 151 86T280 32Q330 32 365 47T435 99L465
73Q437 44 409 27T349 2T279 -6ZM437 260Q438 269 438 277T439 293Q439 321 430 351T401 406T350 447T272 463Q222 463 185 438T127 370T101 270H451L437 260ZM255 557L362 697H407L289 557H255Z" />
<glyph unicode="&#xea;" horiz-adv-x="538" d="M279 -6Q227 -6 187 12T118 64T75 143T60 243Q60 297 74 343T116 425T182 479T271 499Q328 499 367 479T431 427T467 356T478 280Q478 269 478 257T476 238H102Q103 140 151 86T280 32Q330 32 365 47T435 99L465
73Q437 44 409 27T349 2T279 -6ZM437 260Q438 269 438 277T439 293Q439 321 430 351T401 406T350 447T272 463Q222 463 185 438T127 370T101 270H451L437 260ZM126 553L272 702L418 553H380L272 663L164 553H126Z" />
<glyph unicode="&#xeb;" horiz-adv-x="538" d="M279 -6Q227 -6 187 12T118 64T75 143T60 243Q60 297 74 343T116 425T182 479T271 499Q328 499 367 479T431 427T467 356T478 280Q478 269 478 257T476 238H102Q103 140 151 86T280 32Q330 32 365 47T435 99L465
73Q437 44 409 27T349 2T279 -6ZM437 260Q438 269 438 277T439 293Q439 321 430 351T401 406T350 447T272 463Q222 463 185 438T127 370T101 270H451L437 260ZM332 596V697H384V596H332ZM159 596V697H211V596H159Z" />
<glyph unicode="&#xec;" horiz-adv-x="209" d="M84 0V493H125V0H84ZM343 557L228 697H273L377 557H343Z" />
<glyph unicode="&#xed;" horiz-adv-x="209" d="M84 0V493H125V0H84ZM87 557L194 697H239L121 557H87Z" />
<glyph unicode="&#xee;" horiz-adv-x="209" d="M84 0V493H125V0H84ZM214 553L360 702L506 553H468L360 663L252 553H214Z" />
<glyph unicode="&#xef;" horiz-adv-x="209" d="M84 0V493H125V0H84ZM421 596V697H473V596H421ZM248 596V697H300V596H248Z" />
<glyph unicode="&#xf0;" horiz-adv-x="640" d="M285 -6Q222 -6 175 21T101 98T75 212Q75 277 95 331T153 423T240 483T351 505Q394 505 425 489T478 446T512 387T528 321Q539 450 508 529T398 645T188 684L190 714Q303 711 376 687T492 619T551 511T568 363Q568
290 551 224T500 105T412 24T285 -6ZM287 30Q349 30 396 57T474 132T516 244Q521 276 515 314T491 388T439 446T354 469Q280 469 227 436T144 344T115 213Q115 158 137 117T197 53T287 30ZM297 554L291 574L604 677L610 657L297 554Z" />
<glyph unicode="&#xf1;" horiz-adv-x="527" d="M83 0V493H124V369L115 366Q127 410 150 439T208 484T283 499Q361 499 405 452T450 302V0H408V289Q408 378 375 420T275 463Q231 463 198 441T144 370T124 243V0H83ZM330 578Q299 578 281 592T252 625T227 658T189
673Q162 673 147 651T131 589H104Q104 642 127 672T191 702Q220 702 236 688T265 654T292 621T331 606Q354 606 369 631T385 697H413Q413 643 391 611T330 578Z" />
<glyph unicode="&#xf2;" horiz-adv-x="582" d="M291 -6Q224 -6 172 26T90 115T60 247Q60 321 89 378T171 467T291 499Q359 499 411 467T492 378T521 247Q521 173 492 116T411 27T291 -6ZM291 31Q348 31 390 58T456 134T480 247Q480 311 456 359T390 435T291 462Q234
462 192 435T126 360T102 247Q102 183 125 135T191 59T291 31ZM274 557L159 697H204L308 557H274Z" />
<glyph unicode="&#xf3;" horiz-adv-x="582" d="M291 -6Q224 -6 172 26T90 115T60 247Q60 321 89 378T171 467T291 499Q359 499 411 467T492 378T521 247Q521 173 492 116T411 27T291 -6ZM291 31Q348 31 390 58T456 134T480 247Q480 311 456 359T390 435T291 462Q234
462 192 435T126 360T102 247Q102 183 125 135T191 59T291 31ZM274 557L381 697H426L308 557H274Z" />
<glyph unicode="&#xf4;" horiz-adv-x="582" d="M291 -6Q224 -6 172 26T90 115T60 247Q60 321 89 378T171 467T291 499Q359 499 411 467T492 378T521 247Q521 173 492 116T411 27T291 -6ZM291 31Q348 31 390 58T456 134T480 247Q480 311 456 359T390 435T291 462Q234
462 192 435T126 360T102 247Q102 183 125 135T191 59T291 31ZM145 553L291 702L437 553H399L291 663L183 553H145Z" />
<glyph unicode="&#xf5;" horiz-adv-x="582" d="M291 -6Q224 -6 172 26T90 115T60 247Q60 321 89 378T171 467T291 499Q359 499 411 467T492 378T521 247Q521 173 492 116T411 27T291 -6ZM291 31Q348 31 390 58T456 134T480 247Q480 311 456 359T390 435T291 462Q234
462 192 435T126 360T102 247Q102 183 125 135T191 59T291 31ZM361 578Q330 578 312 592T283 625T258 658T220 673Q193 673 178 651T162 589H135Q135 642 158 672T222 702Q251 702 267 688T296 654T323 621T362 606Q385 606 400 631T416 697H444Q444 643 422 611T361
578Z" />
<glyph unicode="&#xf6;" horiz-adv-x="582" d="M291 -6Q224 -6 172 26T90 115T60 247Q60 321 89 378T171 467T291 499Q359 499 411 467T492 378T521 247Q521 173 492 116T411 27T291 -6ZM291 31Q348 31 390 58T456 134T480 247Q480 311 456 359T390 435T291 462Q234
462 192 435T126 360T102 247Q102 183 125 135T191 59T291 31ZM352 596V697H404V596H352ZM179 596V697H231V596H179Z" />
<glyph unicode="&#xf7;" horiz-adv-x="561" d="M75 230V264H486V230H75ZM256 50V151H304V50H256ZM256 344V443H304V344H256Z" />
<glyph unicode="&#xf8;" horiz-adv-x="582" d="M291 -6Q224 -6 172 26T90 115T60 247Q60 321 89 378T171 467T291 499Q359 499 411 467T492 378T521 247Q521 173 492 116T411 27T291 -6ZM291 31Q348 31 390 58T456 134T480 247Q480 311 456 359T390 435T291 462Q234
462 192 435T126 360T102 247Q102 183 125 135T191 59T291 31ZM90 203L466 801H491L115 203H90Z" />
<glyph unicode="&#xf9;" horiz-adv-x="527" d="M243 -6Q192 -6 154 15T97 80T77 191V493H118V204Q118 145 133 107T178 50T251 31Q298 31 332 53T384 120T402 237V493H443V0H402V124H411Q393 57 348 26T243 -6ZM242 557L127 697H172L276 557H242Z" />
<glyph unicode="&#xfa;" horiz-adv-x="527" d="M243 -6Q192 -6 154 15T97 80T77 191V493H118V204Q118 145 133 107T178 50T251 31Q298 31 332 53T384 120T402 237V493H443V0H402V124H411Q393 57 348 26T243 -6ZM243 557L350 697H395L277 557H243Z" />
<glyph unicode="&#xfb;" horiz-adv-x="527" d="M243 -6Q192 -6 154 15T97 80T77 191V493H118V204Q118 145 133 107T178 50T251 31Q298 31 332 53T384 120T402 237V493H443V0H402V124H411Q393 57 348 26T243 -6ZM114 553L260 702L406 553H368L260 663L152 553H114Z" />
<glyph unicode="&#xfc;" horiz-adv-x="527" d="M243 -6Q192 -6 154 15T97 80T77 191V493H118V204Q118 145 133 107T178 50T251 31Q298 31 332 53T384 120T402 237V493H443V0H402V124H411Q393 57 348 26T243 -6ZM320 596V697H372V596H320ZM147 596V697H199V596H147Z" />
<glyph unicode="&#xfd;" horiz-adv-x="511" d="M146 -203L233 9L34 493H81L255 52L429 493H476L191 -203H146ZM239 557L346 697H391L273 557H239Z" />
<glyph unicode="&#xfe;" horiz-adv-x="634" d="M115 -204V697H157V332L149 340Q162 389 192 424T263 479T351 499Q416 499 462 466T532 375T556 245Q556 171 531 115T460 26T351 -6Q304 -6 263 13T192 68T150 151L157 162V-204H115ZM342 31Q397 31 436 58T495
134T515 245Q515 308 495 357T437 434T342 462Q286 462 244 434T178 356T154 245Q154 185 177 136T243 59T342 31Z" />
<glyph unicode="&#xff;" horiz-adv-x="511" d="M146 -203L233 9L34 493H81L255 52L429 493H476L191 -203H146ZM316 596V697H368V596H316ZM143 596V697H195V596H143Z" />
<glyph unicode="&#x2013;" horiz-adv-x="375" d="M14 296V328H361V296H14Z" />
<glyph unicode="&#x2014;" horiz-adv-x="1038" d="M14 296V328H1024V296H14Z" />
<glyph unicode="&#x2018;" horiz-adv-x="240" d="M36 410L172 697H202L84 410H36Z" />
<glyph unicode="&#x2019;" horiz-adv-x="240" d="M38 410L156 697H204L68 410H38Z" />
<glyph unicode="&#x201a;" horiz-adv-x="266" d="M50 -159L168 129H216L80 -159H50Z" />
<glyph unicode="&#x201c;" horiz-adv-x="393" d="M191 410L325 697H356L238 410H191ZM35 410L170 697H201L83 410H35Z" />
<glyph unicode="&#x201d;" horiz-adv-x="393" d="M193 410L311 697H359L223 410H193ZM37 410L155 697H203L67 410H37Z" />
<glyph unicode="&#x201e;" horiz-adv-x="342" d="M167 -159L286 129H333L198 -159H167ZM9 -159L127 129H175L39 -159H9Z" />
<glyph unicode="&#x2022;" horiz-adv-x="319" d="M66 154V341H253V154H66Z" />
<glyph unicode="&#x2039;" horiz-adv-x="218" d="M203 78L3 253L203 426V381L54 253L203 124V78Z" />
<glyph unicode="&#x203a;" horiz-adv-x="218" d="M14 78V124L162 253L14 381V426L214 253L14 78Z" />
</font>
</defs>
</svg>
