<?xml version="1.0" standalone="no"?>
<!DOCTYPE svg PUBLIC "-//W3C//DTD SVG 1.1//EN" "http://www.w3.org/Graphics/SVG/1.1/DTD/svg11.dtd">
<svg xmlns="http://www.w3.org/2000/svg">
<defs >
<font id="HankenGrotesk" horiz-adv-x="545" ><font-face
    font-family="Hanken Grotesk Light"
    units-per-em="1000"
    panose-1="0 0 0 0 0 0 0 0 0 0"
    ascent="1000"
    descent="-303"
    alphabetic="0" />
<glyph unicode=" " horiz-adv-x="260" />
<glyph unicode="!" horiz-adv-x="218" d="M85 196L78 697H141L134 196H85ZM71 0V108H147V0H71Z" />
<glyph unicode="&quot;" horiz-adv-x="314" d="M51 416V697H105V416H51ZM208 416V697H262V416H208Z" />
<glyph unicode="#" horiz-adv-x="689" d="M129 0L174 212H51V258H184L224 452H93V500H234L276 697H328L285 498H461L503 697H555L512 498H637V452H502L461 258H596V212H452L407 0H356L401 212H224L181 0H129ZM235 258H412L451 452H275L235 258Z" />
<glyph unicode="$" horiz-adv-x="553" d="M263 -112V0H306V-112H263ZM261 697V808H304V697H261ZM289 -9Q188 -9 123 44T43 185L107 201Q119 127 169 89T291 50Q335 50 369 67T423 115T443 186Q443 229 421 255T360 301T274 338Q219 359 176 383T109 443T84 530Q84
582 109 621T180 684T285 707Q349 707 398 678T478 593L426 561Q402 603 367 626T283 649Q244 649 214 634T167 593T150 532Q150 496 169 471T225 428T310 392Q369 370 413 345T482 282T508 190Q508 132 480 87T403 17T289 -9Z" />
<glyph unicode="%" horiz-adv-x="743" d="M120 0L573 697H620L167 0H120ZM538 -7Q495 -7 460 13T404 70T382 153Q382 199 403 235T459 291T537 312Q580 312 615 291T671 233T692 153Q692 109 671 73T616 15T538 -7ZM538 37Q569 37 593 52T633 94T648 153Q648 186
633 212T593 253T537 268Q506 268 481 253T441 213T426 153Q426 119 441 93T482 52T538 37ZM207 386Q164 386 129 406T72 463T51 544Q51 591 72 627T128 683T205 704Q249 704 284 683T340 625T361 544Q361 501 340 465T285 408T207 386ZM207 430Q237 430 261 445T301
486T316 544Q316 578 301 604T261 645T205 660Q175 660 150 646T110 605T95 544Q95 511 110 485T150 445T207 430Z" />
<glyph unicode="&amp;" horiz-adv-x="666" d="M269 -9Q206 -9 158 11T82 69T55 161Q55 206 73 240T120 300T186 347T260 388Q304 412 341 436T401 491T424 561Q424 598 399 625T321 653Q268 653 236 622T203 543Q203 515 214 490T243 440T279 392L229 365Q207
393 187 420T155 478T143 545Q143 592 166 627T229 683T320 703Q398 703 440 664T483 562Q483 507 454 468T381 399T289 342Q247 319 208 295T144 240T119 164Q119 109 160 78T269 46Q384 46 456 126T550 352L606 345Q591 230 545 151T429 32T269 -9ZM570 -32L257
338L307 369L615 7L570 -32Z" />
<glyph unicode="&apos;" horiz-adv-x="156" d="M51 416V697H105V416H51Z" />
<glyph unicode="(" horiz-adv-x="202" d="M141 -204Q113 -163 91 -108T55 9T33 131T25 245Q25 323 38 404T77 561T142 697H200Q157 635 130 558T89 401T76 246Q76 192 84 131T108 9T147 -107T200 -204H141Z" />
<glyph unicode=")" horiz-adv-x="202" d="M61 -204H2Q32 -162 55 -108T94 8T118 131T126 246Q126 320 113 400T73 558T2 697H60Q100 637 125 562T164 405T177 245Q177 192 170 131T148 9T111 -107T61 -204Z" />
<glyph unicode="*" horiz-adv-x="388" d="M117 402L87 425L173 533L40 572L52 609L181 559L175 697H214L208 559L337 609L348 572L216 533L302 425L271 402L194 518L117 402Z" />
<glyph unicode="+" horiz-adv-x="560" d="M254 12V222H44V273H254V483H306V273H516V222H306V12H254Z" />
<glyph unicode="," horiz-adv-x="240" d="M27 -156L134 142H204L71 -156H27Z" />
<glyph unicode="-" horiz-adv-x="327" d="M40 284V332H288V284H40Z" />
<glyph unicode="." horiz-adv-x="240" d="M82 0V108H158V0H82Z" />
<glyph unicode="/" horiz-adv-x="400" d="M-42 -210L313 697H363L8 -210H-42Z" />
<glyph unicode="0" horiz-adv-x="560" d="M283 -7Q228 -7 190 14T126 71T87 152T68 249T62 350Q62 400 67 450T86 546T124 628T187 684T279 705Q330 705 367 686T430 632T470 553T492 456T499 349Q499 294 493 242T471 145T431 66T370 13T283 -7ZM283 54Q337 54
370 92T419 196T435 347Q435 435 419 502T369 607T279 645Q234 645 205 621T158 556T134 462T126 348Q126 290 133 237T158 143T206 78T283 54Z" />
<glyph unicode="1" horiz-adv-x="560" d="M301 0V567L322 533H118V585H246Q273 585 287 596T301 637V697H365V0H301Z" />
<glyph unicode="2" horiz-adv-x="560" d="M53 0V57Q90 87 138 123T236 200T326 289T393 387T419 495Q419 561 381 601T273 642Q222 642 187 620T135 557T116 464L54 468Q54 518 68 560T111 635T181 685T275 703Q337 703 383 678T455 606T481 497Q481 439 459 386T398
284T311 193T209 112T104 40L120 59H509V0H53Z" />
<glyph unicode="3" horiz-adv-x="560" d="M275 -7Q202 -7 147 19T62 94T32 207L94 211Q94 138 144 96T277 54Q331 54 371 72T432 123T454 201Q454 243 436 270T387 313T317 335T234 342V393Q266 393 298 398T357 418T400 457T416 520Q416 556 398 584T348 628T274
644Q206 644 167 607T126 509L64 513Q64 570 91 613T166 680T276 704Q335 704 380 681T452 618T479 525Q479 491 468 466T437 422T394 392T345 374Q376 369 406 357T462 324T502 273T517 201Q517 139 486 92T401 19T275 -7Z" />
<glyph unicode="4" horiz-adv-x="560" d="M365 0V167H20V219L368 697H428V226H542V167H428V0H365ZM73 203L68 226H365V627L372 622L73 203Z" />
<glyph unicode="5" horiz-adv-x="560" d="M279 -7Q220 -7 170 18T88 88T43 192L105 203Q113 160 136 126T196 73T278 53Q331 53 370 78T430 145T452 236Q452 284 432 322T375 382T286 405Q240 405 200 384T130 320L65 339L129 697H485V638H152L185 665L134 375L119
377Q157 425 202 445T295 466Q360 466 410 435T489 352T518 236Q518 186 501 142T451 65T374 12T279 -7Z" />
<glyph unicode="6" horiz-adv-x="560" d="M350 697L169 400L162 410Q187 429 216 439T275 449Q338 449 390 419T472 337T502 222Q502 158 470 106T385 24T267 -7Q203 -7 149 23T63 105T31 221Q31 257 41 288T68 346L278 697H350ZM267 393Q221 393 182 371T120
310T96 222Q96 174 119 136T181 75T267 53Q314 53 353 75T415 136T438 223Q438 271 415 309T354 370T267 393Z" />
<glyph unicode="7" horiz-adv-x="560" d="M114 0L464 658L481 638H29V697H527V646L184 0H114Z" />
<glyph unicode="8" horiz-adv-x="560" d="M280 -7Q221 -7 168 16T81 84T47 198Q47 263 82 311T180 379Q138 397 113 435T87 527Q87 583 115 622T188 683T281 704Q335 704 379 682T448 619T474 522Q474 471 449 434T380 379Q442 359 477 311T512 198Q512 130 479
85T393 16T280 -7ZM280 53Q325 53 363 70T425 120T449 204Q449 249 428 282T368 334T280 353Q230 353 192 335T132 283T110 204Q110 154 134 121T197 70T280 53ZM282 397Q339 397 375 431T412 518Q412 574 377 609T281 644Q247 644 217 630T169 589T150 523Q150
466 187 432T282 397Z" />
<glyph unicode="9" horiz-adv-x="560" d="M197 0L377 297L384 287Q360 269 331 259T271 248Q208 248 157 278T75 360T44 475Q44 540 76 591T161 673T279 704Q344 704 397 674T483 593T515 476Q515 440 505 410T478 351L268 0H197ZM279 304Q326 304 364 326T426
387T450 475Q450 523 427 561T365 622T279 644Q232 644 193 622T131 561T108 474Q108 426 131 388T193 327T279 304Z" />
<glyph unicode=":" horiz-adv-x="240" d="M82 363V471H158V363H82ZM82 0V108H158V0H82Z" />
<glyph unicode=";" horiz-adv-x="240" d="M12 -156L119 129H189L56 -156H12ZM101 363V471H177V363H101Z" />
<glyph unicode="&lt;" horiz-adv-x="560" d="M514 18L36 219V274L514 475V421L72 237V257L514 72V18Z" />
<glyph unicode="=" horiz-adv-x="560" d="M87 319V370H474V319H87ZM87 124V174H474V124H87Z" />
<glyph unicode="&gt;" horiz-adv-x="560" d="M47 18V72L489 257V237L47 421V475L525 274V219L47 18Z" />
<glyph unicode="?" horiz-adv-x="504" d="M221 194V261Q221 300 234 325T267 368T309 401T352 432T385 471T398 527Q398 587 359 619T249 651Q180 651 140 615T99 511H42Q43 573 69 616T143 681T250 704Q310 704 356 685T428 626T454 526Q454 484 441 455T408
407T365 374T322 344T289 309T276 257V194H221ZM212 0V108H287V0H212Z" />
<glyph unicode="@" horiz-adv-x="862" d="M432 -104Q356 -104 289 -77T170 0T90 117T61 265Q61 345 89 413T168 531T286 610T432 638Q511 638 578 610T696 531T774 413T802 266Q802 209 788 165T745 95T667 69Q633 69 610 82T574 116T562 162V195L574 177Q552
118 507 92T414 66Q364 66 323 90T257 159T233 262Q233 321 257 365T322 434T414 459Q465 459 504 432T562 356L557 361L564 451H613V187Q613 152 627 135T673 118Q716 118 735 157T755 266Q755 336 731 395T663 498T560 566T432 590Q365 590 306 566T203 499T133
396T108 264Q108 195 133 137T203 35T306 -33T432 -57Q516 -57 597 -12L618 -53Q578 -79 530 -91T432 -104ZM425 117Q463 117 492 135T538 185T555 262Q555 306 538 339T492 390T425 409Q388 409 358 390T311 338T293 262Q293 220 310 187T358 136T425 117Z" />
<glyph unicode="A" horiz-adv-x="619" d="M23 0L282 697H337L595 0H524L310 606L96 0H23ZM151 179L172 238H447L469 179H151Z" />
<glyph unicode="B" horiz-adv-x="595" d="M85 0V697H296Q393 697 448 651T503 524Q503 470 478 430T408 371Q471 356 504 311T538 193Q538 100 481 50T316 0H85ZM150 60H312Q473 60 473 196Q473 260 438 295T337 331H150V60ZM150 390H314Q370 390 404 424T438
515Q438 572 401 604T296 637H150V390Z" />
<glyph unicode="C" horiz-adv-x="701" d="M372 -10Q278 -10 207 34T96 160T56 349Q56 457 95 537T206 662T372 707Q474 707 549 657T657 517L596 494Q569 564 512 604T372 644Q296 644 240 608T152 506T121 349Q121 258 152 192T239 89T372 53Q455 53 512 93T596
203L657 181Q624 92 549 41T372 -10Z" />
<glyph unicode="D" horiz-adv-x="685" d="M85 0V697H273Q442 697 535 605T629 343Q629 177 537 89T272 0H85ZM150 60H266Q361 60 427 90T527 183T562 345Q562 444 528 509T428 605T272 637H150V60Z" />
<glyph unicode="E" horiz-adv-x="587" d="M85 0V697H541V638H150V384H501V325H150V59H541V0H85Z" />
<glyph unicode="F" horiz-adv-x="568" d="M85 0V697H537V638H150V384H486V325H150V0H85Z" />
<glyph unicode="G" horiz-adv-x="728" d="M369 -10Q275 -10 205 34T95 160T56 349Q56 457 95 537T206 662T372 707Q474 707 549 657T657 517L596 494Q569 564 512 604T372 644Q296 644 240 608T152 506T121 349Q121 258 152 192T239 89T372 53Q411 53 450 63T524
100T578 171T599 287V344L614 300H420V359H657V0H599L590 148L601 141Q584 87 548 54T465 6T369 -10Z" />
<glyph unicode="H" horiz-adv-x="669" d="M85 0V697H150V386H518V697H584V0H518V325H150V0H85Z" />
<glyph unicode="I" horiz-adv-x="235" d="M85 0V697H150V0H85Z" />
<glyph unicode="J" horiz-adv-x="551" d="M255 -10Q160 -10 100 47T33 204L97 210Q103 131 144 91T255 51Q333 51 370 103T408 253V638H124V697H473V250Q473 168 448 110T374 21T255 -10Z" />
<glyph unicode="K" horiz-adv-x="619" d="M136 228V312L504 697H592L136 228ZM85 0V697H150V0H85ZM518 0L273 388L322 433L595 0H518Z" />
<glyph unicode="L" horiz-adv-x="490" d="M85 0V697H150V59H471V0H85Z" />
<glyph unicode="M" horiz-adv-x="828" d="M85 0V697H183L421 121H408L647 697H743V0H678V622L682 621L447 58H382L146 621L150 622V0H85Z" />
<glyph unicode="N" horiz-adv-x="667" d="M85 0V697H156L530 84H517V697H582V0H509L137 614H150V0H85Z" />
<glyph unicode="O" horiz-adv-x="748" d="M372 -10Q278 -10 207 34T96 159T56 348Q56 456 95 537T206 662T372 707Q469 707 540 663T651 537T691 348Q691 240 651 160T540 35T372 -10ZM372 53Q450 53 506 89T594 191T625 348Q625 439 594 505T507 608T372 644Q296
644 240 608T152 506T121 348Q121 257 152 191T239 89T372 53Z" />
<glyph unicode="P" horiz-adv-x="550" d="M85 0V697H281Q391 697 450 647T510 502Q510 408 451 357T281 306H150V0H85ZM150 364H274Q354 364 399 398T444 502Q444 569 400 603T274 638H150V364Z" />
<glyph unicode="Q" horiz-adv-x="768" d="M372 -10Q278 -10 207 34T96 160T56 348Q56 456 95 537T206 662T372 707Q469 707 540 663T651 537T691 348Q691 240 651 160T540 35T372 -10ZM671 -41L408 217L447 258L711 -2L671 -41ZM372 53Q450 53 506 89T594 191T625
348Q625 439 594 505T507 608T372 644Q296 644 240 608T152 506T121 348Q121 257 152 191T239 89T372 53Z" />
<glyph unicode="R" horiz-adv-x="591" d="M85 0V697H281Q358 697 408 674T484 608T510 504Q510 421 462 372T323 313Q309 312 290 312T252 311H150V0H85ZM481 0L296 320L363 329L556 0H481ZM150 369H274Q327 369 365 383T423 427T444 504Q444 551 423 580T364
624T274 638H150V369Z" />
<glyph unicode="S" horiz-adv-x="559" d="M290 -9Q188 -9 123 44T44 185L108 201Q120 127 169 89T292 50Q335 50 369 67T424 115T444 186Q444 229 421 255T360 301T274 338Q220 359 177 383T110 443T85 530Q85 582 110 621T180 684T286 707Q350 707 399 678T478
593L426 561Q402 603 367 626T284 649Q244 649 214 634T167 593T150 532Q150 496 169 471T225 428T311 392Q369 370 413 345T483 282T508 190Q508 132 480 87T403 17T290 -9Z" />
<glyph unicode="T" horiz-adv-x="591" d="M262 0V638H18V697H571V638H328V0H262Z" />
<glyph unicode="U" horiz-adv-x="654" d="M326 -10Q206 -10 142 57T78 252V697H143V259Q143 191 162 145T221 75T326 51Q389 51 430 75T491 146T511 261V697H575V257Q575 127 511 59T326 -10Z" />
<glyph unicode="V" horiz-adv-x="650" d="M299 0L23 697H95L334 79H318L555 697H627L352 0H299Z" />
<glyph unicode="W" horiz-adv-x="946" d="M230 0L29 697H98L267 97L440 660H507L680 97L849 697H917L717 0H650L468 582H479L297 0H230Z" />
<glyph unicode="X" horiz-adv-x="628" d="M26 0L269 351L31 697H109L314 398L520 697H598L359 351L603 0H525L314 303L104 0H26Z" />
<glyph unicode="Y" horiz-adv-x="593" d="M264 0V267L18 697H92L295 333L500 697H575L330 267V0H264Z" />
<glyph unicode="Z" horiz-adv-x="569" d="M34 0V58L458 657L467 638H58V697H523V640L104 48L97 59H534V0H34Z" />
<glyph unicode="[" horiz-adv-x="244" d="M58 -246V739H241V696H111V-203H241V-246H58Z" />
<glyph unicode="\" horiz-adv-x="427" d="M469 -210H420L64 697H115L469 -210Z" />
<glyph unicode="]" horiz-adv-x="244" d="M186 -246H3V-203H134V696H3V739H186V-246Z" />
<glyph unicode="^" horiz-adv-x="511" d="M30 226L216 697H295L481 226H414L246 666H265L97 226H30Z" />
<glyph unicode="_" horiz-adv-x="397" d="M0 -49V0H397V-49H0Z" />
<glyph unicode="`" horiz-adv-x="281" d="M177 557L55 697H122L226 557H177Z" />
<glyph unicode="a" horiz-adv-x="537" d="M407 0L403 112V307Q403 375 368 410T265 445Q221 445 184 428T114 368L68 407Q108 455 157 477T269 500Q363 500 414 451T465 307V0H407ZM233 -7Q178 -7 138 12T76 64T54 143Q54 183 69 210T110 254Q137 272 171 279T246
286H409V238H254Q225 238 198 233T151 213Q135 202 127 185T118 143Q118 98 150 72T239 45Q284 45 321 66T380 126T403 211L430 181Q425 125 398 82T328 16T233 -7Z" />
<glyph unicode="b" horiz-adv-x="593" d="M314 -7Q266 -7 227 12T160 67T120 148L140 155V0H77V697H140V339L123 349Q134 392 161 426T227 480T314 500Q377 500 427 469T508 380T538 247Q538 175 510 118T431 27T314 -7ZM304 51Q354 51 392 76T453 146T475 247Q475
304 453 348T393 417T304 442Q254 442 216 417T157 348T135 247Q135 190 156 146T216 77T304 51Z" />
<glyph unicode="c" horiz-adv-x="516" d="M276 -7Q224 -7 183 12T114 67T70 148T55 247Q55 299 70 345T113 426T183 480T276 500Q343 500 394 467T470 366L413 344Q397 391 362 418T276 445Q222 445 187 417T135 344T117 247Q117 195 134 150T187 76T276 48Q327
48 362 75T413 150L470 128Q446 61 395 27T276 -7Z" />
<glyph unicode="d" horiz-adv-x="594" d="M279 -7Q213 -7 163 26T84 117T55 247Q55 323 85 380T166 468T279 500Q328 500 367 481T433 427T470 350L453 339V697H516V0H453V155L473 148Q460 102 433 67T367 13T279 -7ZM289 51Q339 51 377 76T436 146T458 247Q458
304 437 348T377 417T289 442Q240 442 201 417T140 348T118 247Q118 190 140 146T201 77T289 51Z" />
<glyph unicode="e" horiz-adv-x="539" d="M280 -7Q225 -7 183 12T112 65T70 145T55 243Q55 296 69 342T110 424T178 480T272 500Q328 500 368 481T434 428T472 354T485 273Q485 265 485 252T482 230H117Q119 145 162 98T280 51Q327 51 360 65T425 114L470 74Q442
45 413 28T352 2T280 -7ZM422 262Q424 270 424 278T424 295Q424 321 416 348T389 397T342 433T273 447Q227 447 193 424T139 363T117 277H443L422 262Z" />
<glyph unicode="f" horiz-adv-x="329" d="M119 0V443H10V493H120V564Q120 615 136 646T182 690T249 704Q274 704 294 700T332 685L311 637Q299 644 286 647T256 651Q219 651 201 629T182 564V493H302V443H182V0H119Z" />
<glyph unicode="g" horiz-adv-x="507" d="M271 -212Q166 -212 106 -173T45 -65Q45 -60 45 -53T47 -39L161 52L185 36L108 -53Q107 -57 107 -60T107 -67Q107 -115 153 -139T271 -163Q332 -163 371 -144T411 -83Q411 -59 398 -45T360 -22T304 -8T235 4Q191 11 151
23T85 59T59 123Q59 157 81 183T142 229L182 201Q148 191 134 174T119 132Q119 109 134 95T177 74T242 61Q288 54 329 46T403 24T454 -13T473 -76Q473 -142 419 -177T271 -212ZM257 163Q203 163 161 184T95 243T71 330Q71 380 95 418T162 478T255 500Q306 500 347
479T413 418T438 327Q438 278 415 241T351 184T257 163ZM256 215Q311 215 343 248T375 331Q375 384 342 416T256 449Q202 449 168 416T134 332Q134 282 167 249T256 215ZM407 408L361 439L460 523L492 483L407 408Z" />
<glyph unicode="h" horiz-adv-x="537" d="M77 0V697H141V378L125 373Q138 414 162 442T220 485T295 500Q376 500 420 452T465 308V0H402V285Q402 367 372 406T280 445Q216 445 179 397T141 244V0H77Z" />
<glyph unicode="i" horiz-adv-x="217" d="M77 0V493H140V0H77ZM71 589V697H146V589H71Z" />
<glyph unicode="j" horiz-adv-x="217" d="M47 -211Q31 -211 13 -208T-24 -199V-143Q-8 -149 4 -151T25 -153Q51 -153 64 -138T77 -85V493H140V-100Q140 -158 115 -184T47 -211ZM72 589V697H147V589H72Z" />
<glyph unicode="k" horiz-adv-x="518" d="M415 0L239 269L131 156V237L379 493H461L285 312L490 0H415ZM77 0V697H141V0H77Z" />
<glyph unicode="l" horiz-adv-x="258" d="M168 -7Q126 -7 101 19T76 104V697H139V115Q139 81 152 66T187 51Q197 51 209 53T234 60V6Q217 0 200 -3T168 -7Z" />
<glyph unicode="m" horiz-adv-x="820" d="M77 0V493H141V366H128Q137 401 152 426T188 467T233 492T285 500Q329 500 362 484T417 433T446 346L411 344Q425 395 447 429T504 482T584 500Q644 500 680 473T732 399T748 294V0H685V280Q685 331 674 368T638 425T570
445Q533 445 505 426T461 366T445 266V0H381V289Q381 368 353 406T268 445Q231 445 202 425T157 364T141 260V0H77Z" />
<glyph unicode="n" horiz-adv-x="537" d="M77 0V493H141V378L126 373Q139 414 163 442T220 485T295 500Q375 500 420 453T465 308V0H402V285Q402 367 372 406T280 445Q238 445 207 425T158 360T141 244V0H77Z" />
<glyph unicode="o" horiz-adv-x="579" d="M290 -7Q222 -7 169 25T85 115T55 247Q55 321 84 378T167 467T290 500Q359 500 411 468T494 378T525 247Q525 173 495 116T411 26T290 -7ZM290 49Q342 49 380 74T440 143T461 247Q461 307 440 351T381 420T290 445Q238
445 199 420T139 351T117 247Q117 188 138 144T199 74T290 49Z" />
<glyph unicode="p" horiz-adv-x="593" d="M77 -204V493H140V338L120 352Q134 399 161 432T227 482T314 500Q380 500 430 467T509 376T538 246Q538 171 508 114T428 25T314 -7Q266 -7 227 11T161 63T123 138L140 154V-204H77ZM304 51Q354 51 392 76T453 145T475
246Q475 303 453 347T393 416T304 442Q254 442 216 417T157 347T135 246Q135 189 156 145T216 76T304 51Z" />
<glyph unicode="q" horiz-adv-x="594" d="M453 -204V154L470 138Q460 96 433 63T367 12T279 -7Q217 -7 166 24T85 113T55 246Q55 319 83 376T162 466T279 500Q328 500 367 482T433 431T473 352L453 338V493H516V-204H453ZM289 51Q339 51 377 76T436 145T458 246Q458
303 437 347T377 416T289 442Q240 442 201 417T140 347T118 246Q118 189 140 145T201 76T289 51Z" />
<glyph unicode="r" horiz-adv-x="397" d="M77 0V493H141V362L125 359Q133 405 160 436T223 483T292 500Q312 500 332 496T372 481L341 424Q328 430 312 434T281 438Q255 438 229 428T182 397T150 339Q146 324 144 302T141 241V0H77Z" />
<glyph unicode="s" horiz-adv-x="467" d="M235 -7Q186 -7 147 8T79 48T34 105L79 141Q98 99 138 73T235 46Q288 46 320 69T352 134Q352 168 333 186T283 216T216 235Q188 242 160 251T110 275T74 313T61 370Q61 428 106 464T225 500Q280 500 325 477T396 405L355
375Q334 414 300 431T223 449Q178 449 149 429T119 375Q119 350 133 335T173 309T234 291Q266 284 297 274T355 249T397 207T413 141Q413 96 391 63T329 11T235 -7Z" />
<glyph unicode="t" horiz-adv-x="334" d="M229 -7Q196 -7 171 6T133 46T119 116V634L183 671V131Q183 91 196 69T244 46Q256 46 270 48T300 55V5Q282 -1 264 -4T229 -7ZM10 443V493H300V443H10Z" />
<glyph unicode="u" horiz-adv-x="537" d="M240 -7Q188 -7 150 14T92 78T71 186V493H134V208Q134 154 148 119T189 66T257 48Q301 48 332 69T379 133T396 243V493H459V0H396V115H411Q392 54 347 24T240 -7Z" />
<glyph unicode="v" horiz-adv-x="516" d="M231 0L29 493H98L257 80L417 493H486L285 0H231Z" />
<glyph unicode="w" horiz-adv-x="747" d="M177 0L34 493H101L211 94L344 493H402L536 96L646 493H713L569 0H509L374 406L238 0H177Z" />
<glyph unicode="x" horiz-adv-x="511" d="M32 0L214 247L32 493H110L256 291L402 493H479L296 247L479 0H401L256 203L109 0H32Z" />
<glyph unicode="y" horiz-adv-x="516" d="M133 -203L224 16L29 493H98L257 80L417 493H486L202 -203H133Z" />
<glyph unicode="z" horiz-adv-x="473" d="M39 0V47L370 454L373 442H55V493H431V442L102 34L100 52H428V0H39Z" />
<glyph unicode="{" horiz-adv-x="225" d="M172 -246Q119 -246 92 -215T64 -125V144Q64 168 57 184T37 209T5 221V272Q24 276 37 284T57 309T64 349V618Q64 678 91 708T172 739H223V697H191Q152 697 136 676T119 617V349Q119 307 103 284T57 250V243Q87 232 103
209T119 145V-124Q119 -162 135 -183T191 -204H223V-246H172Z" />
<glyph unicode="|" horiz-adv-x="242" d="M97 -254V746H145V-254H97Z" />
<glyph unicode="}" horiz-adv-x="225" d="M53 -246H2V-204H34Q73 -204 89 -183T106 -124V145Q106 186 122 209T168 243V250Q138 261 122 284T106 349V617Q106 655 90 676T34 697H2V739H53Q106 739 133 709T161 618V349Q161 326 168 310T188 285T220 272V221Q202
219 189 210T168 184T161 144V-125Q161 -184 134 -215T53 -246Z" />
<glyph unicode="~" horiz-adv-x="560" d="M367 162Q336 162 316 174T282 205T256 242T229 272T191 285Q161 285 145 258T128 186H76Q76 251 107 291T191 332Q224 332 245 320T280 289T306 252T332 221T367 208Q397 208 415 239T434 319H485Q485 249 453 206T367 162Z" />
<glyph unicode="&#xa0;" horiz-adv-x="260" />
<glyph unicode="&#xa1;" horiz-adv-x="218" d="M133 297L140 -204H76L84 297H133ZM147 493V385H71V493H147Z" />
<glyph unicode="&#xa2;" horiz-adv-x="533" d="M263 -113V0H307V-113H263ZM263 493V601H307V493H263ZM287 -7Q235 -7 194 12T125 67T81 148T66 247Q66 299 81 345T124 426T194 480T287 500Q354 500 405 467T481 366L424 344Q408 391 373 418T287 445Q233 445 198
417T146 344T128 247Q128 195 145 150T198 76T287 48Q338 48 373 75T424 150L481 128Q457 61 406 27T287 -7Z" />
<glyph unicode="&#xa3;" horiz-adv-x="555" d="M50 0V63Q90 74 120 97T168 149T186 211Q186 242 174 273T150 335H54V389H138Q131 413 125 442T118 501Q118 558 142 604T212 678T317 705Q388 705 440 666T513 558L463 539Q447 593 408 622T319 651Q276 651 243
632T190 578T171 499Q171 471 177 442T193 389H405V335H203Q214 306 226 276T239 210Q239 170 224 141T186 92T139 63T93 50L105 54H508V0H50Z" />
<glyph unicode="&#xa4;" horiz-adv-x="603" d="M99 73L65 110L128 172Q102 204 90 240T78 313Q78 353 91 389T128 454L65 515L100 552L163 488Q224 540 305 540Q341 540 377 528T444 489L507 552L542 516L479 454Q505 424 517 387T530 313Q530 278 518 241T479
172L542 110L507 73L444 138Q414 112 378 99T304 86Q265 86 229 99T162 138L99 73ZM303 136Q352 136 392 160T456 224T481 313Q481 362 457 402T393 466T303 490Q255 490 215 466T151 402T126 312Q126 263 150 223T215 160T303 136Z" />
<glyph unicode="&#xa5;" horiz-adv-x="582" d="M260 0V111H78V163H260V262H78V314H232L15 697H86L291 328L498 697H569L353 314H505V262H325V163H505V111H325V0H260Z" />
<glyph unicode="&#xa6;" horiz-adv-x="242" d="M97 330V746H145V330H97ZM97 -254V155H145V-254H97Z" />
<glyph unicode="&#xa7;" horiz-adv-x="561" d="M278 -191Q215 -191 165 -165T81 -79L135 -45Q160 -90 196 -111T280 -132Q317 -132 346 -117T392 -76T409 -16Q409 23 386 48T327 90T249 122Q214 136 179 151T115 189T68 244T50 323Q50 362 64 396T103 456Q96 470
91 488T86 527Q86 581 113 620T184 682T282 704Q348 704 397 677T480 593L425 559Q402 602 367 624T281 646Q244 646 215 631T169 590T152 529Q152 490 175 465T236 424T312 392Q348 379 383 363T447 324T493 270T511 191Q511 152 497 118T458 58Q466 43 470 25T475
-14Q475 -67 448 -107T377 -169T278 -191ZM415 103Q445 137 445 186Q445 230 422 257T361 304T276 340Q253 349 230 359T185 381T146 411Q131 395 123 373T115 329Q115 295 129 271T168 230T222 200T285 174Q319 161 354 146T415 103Z" />
<glyph unicode="&#xa8;" horiz-adv-x="364" d="M234 589V697H309V589H234ZM55 589V697H130V589H55Z" />
<glyph unicode="&#xa9;" horiz-adv-x="827" d="M414 -5Q341 -5 277 22T164 98T88 211T60 349Q60 422 87 486T163 598T276 674T414 702Q487 702 551 675T663 599T739 486T767 349Q767 276 740 212T664 99T551 23T414 -5ZM415 116Q352 116 307 147T239 231T215 347Q215
407 237 460T303 547T414 581Q475 581 522 549T594 458L544 438Q527 481 493 506T414 532Q365 532 332 506T284 437T268 347Q268 299 283 258T332 191T414 165Q460 165 493 190T541 258L589 240Q569 181 523 149T415 116ZM414 28Q481 28 539 53T641 122T710 224T735
349Q735 416 710 474T641 576T539 645T414 670Q348 670 290 645T187 576T118 474T93 349Q93 283 118 225T187 122T289 53T414 28Z" />
<glyph unicode="&#xaa;" horiz-adv-x="493" d="M212 347Q159 347 126 375T92 452Q92 504 130 529T226 554H340Q340 557 340 564T339 576Q337 621 313 645T241 669Q203 669 178 654T134 611L104 631Q132 671 164 687T240 704Q306 704 342 668T378 566V353H343L342
423Q293 347 212 347ZM220 383Q257 383 286 402T334 459Q336 474 337 488T340 518H228Q183 518 158 501T133 450Q133 420 156 402T220 383Z" />
<glyph unicode="&#xab;" horiz-adv-x="435" d="M420 69L207 253L420 436V367L283 253L420 137V69ZM217 69L3 253L217 436V367L78 253L217 137V69Z" />
<glyph unicode="&#xac;" horiz-adv-x="560" d="M419 12V222H30V273H469V12H419Z" />
<glyph unicode="&#xad;" horiz-adv-x="327" d="M40 284V332H288V284H40Z" />
<glyph unicode="&#xae;" horiz-adv-x="623" d="M312 192Q241 192 183 225T90 316T56 448Q56 522 90 579T182 670T312 704Q382 704 440 671T532 580T567 448Q567 375 533 317T440 226T312 192ZM312 223Q374 223 424 252T505 333T536 448Q536 513 506 564T425 644T312
674Q250 674 199 645T117 564T87 448Q87 384 117 333T198 253T312 223ZM236 304V593H319Q368 593 391 572T415 512Q415 479 396 460T345 436L427 304H393L315 432H267V304H236ZM268 460H316Q347 460 366 472T385 512Q385 540 366 552T316 565H268V460Z" />
<glyph unicode="&#xaf;" horiz-adv-x="379" d="M55 603V642H324V603H55Z" />
<glyph unicode="&#xb0;" horiz-adv-x="416" d="M208 421Q169 421 137 440T86 492T66 563Q66 602 85 634T137 685T208 704Q247 704 279 685T330 634T350 563Q350 524 331 492T279 441T208 421ZM208 465Q235 465 257 478T292 513T306 563Q306 590 293 612T257 647T208
660Q181 660 159 647T124 612T110 563Q110 536 123 514T159 478T208 465Z" />
<glyph unicode="&#xb1;" horiz-adv-x="560" d="M254 115V289H32V341H254V514H306V341H528V289H306V115H254ZM32 -21V30H528V-21H32Z" />
<glyph unicode="&#xb2;" horiz-adv-x="410" d="M57 488V522Q94 546 135 574T213 635T272 705T295 785Q295 824 273 848T207 873Q178 873 157 860T124 822T112 763L77 766Q77 806 92 837T136 887T207 906Q263 906 297 874T331 785Q331 743 312 705T260 634T188
573T111 522L103 521H354V488H57Z" />
<glyph unicode="&#xb3;" horiz-adv-x="407" d="M201 482Q160 482 127 497T75 540T56 609L91 612Q91 566 122 541T201 516Q246 516 278 539T310 606Q310 642 289 660T237 685T180 691V718Q209 718 233 725T272 748T287 792Q287 828 262 849T201 870Q162 870 137
848T110 789L75 791Q75 844 111 874T199 904Q233 904 261 891T306 854T323 798Q323 772 312 754T283 725T246 708Q272 704 294 691T330 657T345 604Q345 566 326 539T274 497T201 482Z" />
<glyph unicode="&#xb4;" horiz-adv-x="285" d="M55 557L162 697H230L103 557H55Z" />
<glyph unicode="&#xb5;" horiz-adv-x="537" d="M71 -173V493H134V195Q134 151 147 118T187 67T260 48Q307 48 337 72T382 139T396 236V493H459V0H396V87Q376 42 336 18T242 -7Q202 -7 175 9T134 59V-173H71Z" />
<glyph unicode="&#xb6;" horiz-adv-x="550" d="M268 -121V307Q211 307 160 330T77 397T45 502Q45 564 77 607T160 674T268 697H306V-121H268ZM415 -121V697H453V-121H415Z" />
<glyph unicode="&#xb7;" horiz-adv-x="310" d="M109 295V403H185V295H109Z" />
<glyph unicode="&#xb8;" horiz-adv-x="305" d="M149 -256Q119 -256 93 -238T55 -192L92 -175Q98 -193 114 -205T151 -217Q180 -217 196 -202T212 -160Q212 -131 188 -115T122 -95Q114 -94 101 -94T80 -94L133 0H173L133 -66Q137 -67 145 -68T166 -71Q209 -80 230
-102T251 -158Q251 -186 238 -208T203 -243T149 -256Z" />
<glyph unicode="&#xb9;" horiz-adv-x="256" d="M140 488V825L152 806H36V835H107Q141 835 141 866V902H176V488H140Z" />
<glyph unicode="&#xba;" horiz-adv-x="521" d="M260 354Q212 354 174 377T114 441T92 529Q92 578 114 617T174 680T260 704Q308 704 346 681T406 618T428 529Q428 480 406 440T347 377T260 354ZM260 391Q299 391 327 409T370 459T386 529Q386 568 371 599T327
649T260 668Q222 668 194 650T150 600T135 529Q135 491 150 459T193 409T260 391Z" />
<glyph unicode="&#xbb;" horiz-adv-x="429" d="M8 69V137L145 253L8 367V436L221 253L8 69ZM211 69V137L350 253L211 367V436L425 253L211 69Z" />
<glyph unicode="&#xbc;" horiz-adv-x="680" d="M130 279V617L144 594H20V630H94Q111 630 120 637T130 663V697H175V279H130ZM106 0L496 697H543L153 0H106ZM541 0V100H339V136L544 418H586V142H654V100H586V0H541ZM377 126L372 142H541V367L546 364L377 126Z" />
<glyph unicode="&#xbd;" horiz-adv-x="717" d="M130 279V617L144 594H20V630H94Q111 630 120 637T130 663V697H175V279H130ZM106 0L496 697H543L153 0H106ZM408 0V38Q435 60 471 87T542 147T600 217T623 294Q623 332 602 355T541 378Q511 378 492 365T463 328T452
276L408 279Q408 318 423 350T469 402T543 422Q598 422 633 388T668 296Q668 253 649 215T596 143T524 80T444 26L455 42H684V0H408Z" />
<glyph unicode="&#xbe;" horiz-adv-x="769" d="M180 274Q114 274 73 310T32 405L77 407Q77 366 106 342T181 318Q228 318 255 340T283 401Q283 445 249 463T156 481V517Q182 517 205 523T244 545T260 589Q260 620 238 639T179 658Q143 658 120 638T96 583L52 585Q52
636 88 669T181 702Q234 702 269 672T305 593Q305 557 284 535T229 504Q255 499 277 487T313 454T327 401Q327 345 287 310T180 274ZM194 0L584 697H631L241 0H194ZM629 0V100H427V136L632 418H674V142H742V100H674V0H629ZM465 126L460 142H629V367L634 364L465
126Z" />
<glyph unicode="&#xbf;" horiz-adv-x="311" d="M251 299V232Q251 193 238 168T205 125T162 92T119 61T87 23T74 -34Q74 -94 113 -126T223 -158Q292 -158 332 -122T373 -18H429Q429 -79 403 -122T330 -188T222 -211Q162 -211 116 -192T44 -133T18 -33Q18 10 31
38T64 86T106 119T149 149T183 184T196 236V299H251ZM260 493V385H184V493H260Z" />
<glyph unicode="&#xc0;" horiz-adv-x="619" d="M23 0L282 697H337L595 0H524L310 606L96 0H23ZM151 179L172 238H447L469 179H151ZM285 761L163 901H230L334 761H285Z" />
<glyph unicode="&#xc1;" horiz-adv-x="619" d="M23 0L282 697H337L595 0H524L310 606L96 0H23ZM151 179L172 238H447L469 179H151ZM286 761L393 901H461L334 761H286Z" />
<glyph unicode="&#xc2;" horiz-adv-x="619" d="M23 0L282 697H337L595 0H524L310 606L96 0H23ZM151 179L172 238H447L469 179H151ZM162 754L310 910L458 754H404L310 854L217 754H162Z" />
<glyph unicode="&#xc3;" horiz-adv-x="619" d="M23 0L282 697H337L595 0H524L310 606L96 0H23ZM151 179L172 238H447L469 179H151ZM379 744Q354 744 338 753T311 777T291 805T270 828T241 838Q218 838 204 816T190 754H152Q152 811 176 843T243 875Q266 875 281
866T307 842T328 813T350 790T380 780Q400 780 413 805T427 871H467Q467 812 443 778T379 744Z" />
<glyph unicode="&#xc4;" horiz-adv-x="619" d="M23 0L282 697H337L595 0H524L310 606L96 0H23ZM151 179L172 238H447L469 179H151ZM362 793V901H437V793H362ZM183 793V901H258V793H183Z" />
<glyph unicode="&#xc5;" horiz-adv-x="619" d="M23 0L282 697H337L595 0H524L310 606L96 0H23ZM151 179L172 238H447L469 179H151ZM311 663Q284 663 263 676T229 710T216 758Q216 784 228 805T263 840T311 853Q337 853 358 840T393 806T406 758Q406 732 393 710T359
676T311 663ZM311 699Q335 699 352 716T369 758Q369 783 353 799T311 816Q285 816 269 799T252 758Q252 733 269 716T311 699Z" />
<glyph unicode="&#xc6;" horiz-adv-x="879" d="M23 0L282 697H833V638H454V380H783V320H454V59H833V0H388V639H323L96 0H23ZM146 179L167 239H405V179H146Z" />
<glyph unicode="&#xc7;" horiz-adv-x="701" d="M372 -10Q278 -10 207 34T96 160T56 349Q56 457 95 537T206 662T372 707Q474 707 549 657T657 517L596 494Q569 564 512 604T372 644Q296 644 240 608T152 506T121 349Q121 258 152 192T239 89T372 53Q455 53 512
93T596 203L657 181Q624 92 549 41T372 -10ZM344 -204Q327 -204 309 -200T276 -186T251 -165L274 -140Q286 -154 305 -162T343 -170Q369 -170 386 -160T403 -127Q403 -110 392 -101T362 -87T324 -80T287 -77L347 6H388L342 -52Q384 -58 413 -74T442 -125Q442 -163
414 -183T344 -204Z" />
<glyph unicode="&#xc8;" horiz-adv-x="587" d="M85 0V697H541V638H150V384H501V325H150V59H541V0H85ZM289 761L167 901H234L338 761H289Z" />
<glyph unicode="&#xc9;" horiz-adv-x="587" d="M85 0V697H541V638H150V384H501V325H150V59H541V0H85ZM289 761L396 901H464L337 761H289Z" />
<glyph unicode="&#xca;" horiz-adv-x="587" d="M85 0V697H541V638H150V384H501V325H150V59H541V0H85ZM165 754L313 910L461 754H407L313 854L220 754H165Z" />
<glyph unicode="&#xcb;" horiz-adv-x="587" d="M85 0V697H541V638H150V384H501V325H150V59H541V0H85ZM366 793V901H441V793H366ZM187 793V901H262V793H187Z" />
<glyph unicode="&#xcc;" horiz-adv-x="235" d="M85 0V697H150V0H85ZM94 761L-28 901H39L143 761H94Z" />
<glyph unicode="&#xcd;" horiz-adv-x="235" d="M85 0V697H150V0H85ZM94 761L201 901H269L142 761H94Z" />
<glyph unicode="&#xce;" horiz-adv-x="235" d="M85 0V697H150V0H85ZM-30 754L118 910L266 754H213L118 854L23 754H-30Z" />
<glyph unicode="&#xcf;" horiz-adv-x="235" d="M85 0V697H150V0H85ZM171 793V901H246V793H171ZM-8 793V901H67V793H-8Z" />
<glyph unicode="&#xd0;" horiz-adv-x="685" d="M85 0V697H273Q442 697 535 605T629 343Q629 177 537 89T272 0H85ZM150 60H266Q361 60 427 90T527 183T562 345Q562 444 528 509T428 605T272 637H150V60ZM268 328V371H531V328H268Z" />
<glyph unicode="&#xd1;" horiz-adv-x="667" d="M85 0V697H156L530 84H517V697H582V0H509L137 614H150V0H85ZM397 744Q372 744 356 753T329 777T309 805T288 828T259 838Q236 838 222 816T208 754H170Q170 811 194 843T261 875Q284 875 299 866T325 842T346 813T368
790T398 780Q418 780 431 805T445 871H485Q485 812 461 778T397 744Z" />
<glyph unicode="&#xd2;" horiz-adv-x="748" d="M372 -10Q278 -10 207 34T96 159T56 348Q56 456 95 537T206 662T372 707Q469 707 540 663T651 537T691 348Q691 240 651 160T540 35T372 -10ZM372 53Q450 53 506 89T594 191T625 348Q625 439 594 505T507 608T372
644Q296 644 240 608T152 506T121 348Q121 257 152 191T239 89T372 53ZM349 761L227 901H294L398 761H349Z" />
<glyph unicode="&#xd3;" horiz-adv-x="748" d="M372 -10Q278 -10 207 34T96 159T56 348Q56 456 95 537T206 662T372 707Q469 707 540 663T651 537T691 348Q691 240 651 160T540 35T372 -10ZM372 53Q450 53 506 89T594 191T625 348Q625 439 594 505T507 608T372
644Q296 644 240 608T152 506T121 348Q121 257 152 191T239 89T372 53ZM349 761L456 901H524L397 761H349Z" />
<glyph unicode="&#xd4;" horiz-adv-x="748" d="M372 -10Q278 -10 207 34T96 159T56 348Q56 456 95 537T206 662T372 707Q469 707 540 663T651 537T691 348Q691 240 651 160T540 35T372 -10ZM372 53Q450 53 506 89T594 191T625 348Q625 439 594 505T507 608T372
644Q296 644 240 608T152 506T121 348Q121 257 152 191T239 89T372 53ZM225 754L373 910L521 754H467L373 854L280 754H225Z" />
<glyph unicode="&#xd5;" horiz-adv-x="748" d="M372 -10Q278 -10 207 34T96 159T56 348Q56 456 95 537T206 662T372 707Q469 707 540 663T651 537T691 348Q691 240 651 160T540 35T372 -10ZM372 53Q450 53 506 89T594 191T625 348Q625 439 594 505T507 608T372
644Q296 644 240 608T152 506T121 348Q121 257 152 191T239 89T372 53ZM442 744Q417 744 401 753T374 777T354 805T333 828T304 838Q281 838 267 816T253 754H215Q215 811 239 843T306 875Q329 875 344 866T370 842T391 813T413 790T443 780Q463 780 476 805T490
871H530Q530 812 506 778T442 744Z" />
<glyph unicode="&#xd6;" horiz-adv-x="748" d="M372 -10Q278 -10 207 34T96 159T56 348Q56 456 95 537T206 662T372 707Q469 707 540 663T651 537T691 348Q691 240 651 160T540 35T372 -10ZM372 53Q450 53 506 89T594 191T625 348Q625 439 594 505T507 608T372
644Q296 644 240 608T152 506T121 348Q121 257 152 191T239 89T372 53ZM426 793V901H501V793H426ZM247 793V901H322V793H247Z" />
<glyph unicode="&#xd7;" horiz-adv-x="560" d="M121 49L82 88L241 246L81 406L120 445L279 286L439 445L478 405L320 246L478 88L439 49L279 207L121 49Z" />
<glyph unicode="&#xd8;" horiz-adv-x="748" d="M372 -10Q278 -10 207 34T96 159T56 348Q56 456 95 537T206 662T372 707Q469 707 540 663T651 537T691 348Q691 240 651 160T540 35T372 -10ZM372 53Q450 53 506 89T594 191T625 348Q625 439 594 505T507 608T372
644Q296 644 240 608T152 506T121 348Q121 257 152 191T239 89T372 53ZM109 0L591 697H636L155 0H109Z" />
<glyph unicode="&#xd9;" horiz-adv-x="654" d="M326 -10Q206 -10 142 57T78 252V697H143V259Q143 191 162 145T221 75T326 51Q389 51 430 75T491 146T511 261V697H575V257Q575 127 511 59T326 -10ZM302 761L180 901H247L351 761H302Z" />
<glyph unicode="&#xda;" horiz-adv-x="654" d="M326 -10Q206 -10 142 57T78 252V697H143V259Q143 191 162 145T221 75T326 51Q389 51 430 75T491 146T511 261V697H575V257Q575 127 511 59T326 -10ZM303 761L410 901H478L351 761H303Z" />
<glyph unicode="&#xdb;" horiz-adv-x="654" d="M326 -10Q206 -10 142 57T78 252V697H143V259Q143 191 162 145T221 75T326 51Q389 51 430 75T491 146T511 261V697H575V257Q575 127 511 59T326 -10ZM179 754L327 910L475 754H421L327 854L234 754H179Z" />
<glyph unicode="&#xdc;" horiz-adv-x="654" d="M326 -10Q206 -10 142 57T78 252V697H143V259Q143 191 162 145T221 75T326 51Q389 51 430 75T491 146T511 261V697H575V257Q575 127 511 59T326 -10ZM379 793V901H454V793H379ZM200 793V901H275V793H200Z" />
<glyph unicode="&#xdd;" horiz-adv-x="593" d="M264 0V267L18 697H92L295 333L500 697H575L330 267V0H264ZM273 761L380 901H448L321 761H273Z" />
<glyph unicode="&#xde;" horiz-adv-x="629" d="M135 0V697H195V596H336Q438 596 496 545T554 403Q554 311 493 259T323 207H195V0H135ZM195 262H323Q404 262 449 297T494 402Q494 472 449 508T323 544H195V262Z" />
<glyph unicode="&#xdf;" horiz-adv-x="626" d="M408 -7Q360 -7 320 9T250 55T208 122L259 145Q270 118 290 96T340 60T407 46Q462 46 491 71T521 135Q521 165 505 183T464 211T408 229T346 245T290 268T249 306T233 368Q233 408 248 432T288 470T339 491T391 508T430
529T446 566Q446 590 428 608T379 635T316 645Q264 645 231 633T180 600T154 556T145 509T143 469V0H78V469Q78 512 87 554T120 630T191 684T312 704Q368 704 412 688T482 640T508 567Q508 532 493 511T453 477T401 456T350 438T311 412T295 368Q295 342 310 328T351
304T408 288T469 272T525 248T567 207T583 141Q583 104 569 77T531 31T476 3T408 -7Z" />
<glyph unicode="&#xe0;" horiz-adv-x="537" d="M407 0L403 112V307Q403 375 368 410T265 445Q221 445 184 428T114 368L68 407Q108 455 157 477T269 500Q363 500 414 451T465 307V0H407ZM233 -7Q178 -7 138 12T76 64T54 143Q54 183 69 210T110 254Q137 272 171
279T246 286H409V238H254Q225 238 198 233T151 213Q135 202 127 185T118 143Q118 98 150 72T239 45Q284 45 321 66T380 126T403 211L430 181Q425 125 398 82T328 16T233 -7ZM249 557L127 697H194L298 557H249Z" />
<glyph unicode="&#xe1;" horiz-adv-x="537" d="M407 0L403 112V307Q403 375 368 410T265 445Q221 445 184 428T114 368L68 407Q108 455 157 477T269 500Q363 500 414 451T465 307V0H407ZM233 -7Q178 -7 138 12T76 64T54 143Q54 183 69 210T110 254Q137 272 171
279T246 286H409V238H254Q225 238 198 233T151 213Q135 202 127 185T118 143Q118 98 150 72T239 45Q284 45 321 66T380 126T403 211L430 181Q425 125 398 82T328 16T233 -7ZM250 557L357 697H425L298 557H250Z" />
<glyph unicode="&#xe2;" horiz-adv-x="537" d="M407 0L403 112V307Q403 375 368 410T265 445Q221 445 184 428T114 368L68 407Q108 455 157 477T269 500Q363 500 414 451T465 307V0H407ZM233 -7Q178 -7 138 12T76 64T54 143Q54 183 69 210T110 254Q137 272 171
279T246 286H409V238H254Q225 238 198 233T151 213Q135 202 127 185T118 143Q118 98 150 72T239 45Q284 45 321 66T380 126T403 211L430 181Q425 125 398 82T328 16T233 -7ZM126 550L274 706L422 550H369L274 650L179 550H126Z" />
<glyph unicode="&#xe3;" horiz-adv-x="537" d="M407 0L403 112V307Q403 375 368 410T265 445Q221 445 184 428T114 368L68 407Q108 455 157 477T269 500Q363 500 414 451T465 307V0H407ZM233 -7Q178 -7 138 12T76 64T54 143Q54 183 69 210T110 254Q137 272 171
279T246 286H409V238H254Q225 238 198 233T151 213Q135 202 127 185T118 143Q118 98 150 72T239 45Q284 45 321 66T380 126T403 211L430 181Q425 125 398 82T328 16T233 -7ZM342 573Q311 573 293 586T263 616T237 647T204 660Q181 660 167 639T153 581H115Q115
638 139 669T206 701Q234 701 251 688T281 657T307 627T343 613Q363 613 376 636T390 697H430Q430 640 406 607T342 573Z" />
<glyph unicode="&#xe4;" horiz-adv-x="537" d="M407 0L403 112V307Q403 375 368 410T265 445Q221 445 184 428T114 368L68 407Q108 455 157 477T269 500Q363 500 414 451T465 307V0H407ZM233 -7Q178 -7 138 12T76 64T54 143Q54 183 69 210T110 254Q137 272 171
279T246 286H409V238H254Q225 238 198 233T151 213Q135 202 127 185T118 143Q118 98 150 72T239 45Q284 45 321 66T380 126T403 211L430 181Q425 125 398 82T328 16T233 -7ZM326 589V697H401V589H326ZM147 589V697H222V589H147Z" />
<glyph unicode="&#xe5;" horiz-adv-x="537" d="M407 0L403 112V307Q403 375 368 410T265 445Q221 445 184 428T114 368L68 407Q108 455 157 477T269 500Q363 500 414 451T465 307V0H407ZM233 -7Q178 -7 138 12T76 64T54 143Q54 183 69 210T110 254Q137 272 171
279T246 286H409V238H254Q225 238 198 233T151 213Q135 202 127 185T118 143Q118 98 150 72T239 45Q284 45 321 66T380 126T403 211L430 181Q425 125 398 82T328 16T233 -7ZM274 541Q247 541 226 554T192 588T179 636Q179 662 191 683T226 718T274 731Q300 731
321 718T356 684T369 636Q369 610 356 588T322 554T274 541ZM274 577Q298 577 315 594T332 636Q332 661 316 677T274 694Q248 694 232 677T215 636Q215 611 232 594T274 577Z" />
<glyph unicode="&#xe6;" horiz-adv-x="877" d="M227 -7Q145 -7 100 34T54 142Q54 180 69 205T109 245T163 267T222 277T276 279H403V307Q403 374 368 409T267 445Q222 445 185 428T117 368L70 407Q114 458 163 479T273 500Q344 500 387 470T444 380Q468 434 511
466T615 498Q673 498 712 479T776 428T811 357T823 277Q823 264 823 252T820 230H462Q465 145 505 98T618 51Q665 51 698 65T764 114L809 74Q780 43 751 25T690 0T617 -7Q543 -7 494 33T425 142H418Q391 65 344 29T227 -7ZM234 48Q277 48 313 66T373 123T403 225V233H280Q195
233 157 210T118 140Q118 98 148 73T234 48ZM462 277H764Q765 300 758 328T734 383T688 427T615 445Q567 445 534 423T482 362T462 277Z" />
<glyph unicode="&#xe7;" horiz-adv-x="516" d="M276 -7Q224 -7 183 12T114 67T70 148T55 247Q55 299 70 345T113 426T183 480T276 500Q343 500 394 467T470 366L413 344Q397 391 362 418T276 445Q222 445 187 417T135 344T117 247Q117 195 134 150T187 76T276
48Q327 48 362 75T413 150L470 128Q446 61 395 27T276 -7ZM267 -204Q250 -204 232 -200T199 -186T174 -165L197 -140Q209 -154 228 -162T266 -170Q292 -170 309 -160T326 -127Q326 -110 315 -101T285 -87T247 -80T210 -77L270 6H311L265 -52Q307 -58 336 -74T365
-125Q365 -163 337 -183T267 -204Z" />
<glyph unicode="&#xe8;" horiz-adv-x="539" d="M280 -7Q225 -7 183 12T112 65T70 145T55 243Q55 296 69 342T110 424T178 480T272 500Q328 500 368 481T434 428T472 354T485 273Q485 265 485 252T482 230H117Q119 145 162 98T280 51Q327 51 360 65T425 114L470
74Q442 45 413 28T352 2T280 -7ZM422 262Q424 270 424 278T424 295Q424 321 416 348T389 397T342 433T273 447Q227 447 193 424T139 363T117 277H443L422 262ZM248 557L126 697H193L297 557H248Z" />
<glyph unicode="&#xe9;" horiz-adv-x="539" d="M280 -7Q225 -7 183 12T112 65T70 145T55 243Q55 296 69 342T110 424T178 480T272 500Q328 500 368 481T434 428T472 354T485 273Q485 265 485 252T482 230H117Q119 145 162 98T280 51Q327 51 360 65T425 114L470
74Q442 45 413 28T352 2T280 -7ZM422 262Q424 270 424 278T424 295Q424 321 416 348T389 397T342 433T273 447Q227 447 193 424T139 363T117 277H443L422 262ZM248 557L355 697H423L296 557H248Z" />
<glyph unicode="&#xea;" horiz-adv-x="539" d="M280 -7Q225 -7 183 12T112 65T70 145T55 243Q55 296 69 342T110 424T178 480T272 500Q328 500 368 481T434 428T472 354T485 273Q485 265 485 252T482 230H117Q119 145 162 98T280 51Q327 51 360 65T425 114L470
74Q442 45 413 28T352 2T280 -7ZM422 262Q424 270 424 278T424 295Q424 321 416 348T389 397T342 433T273 447Q227 447 193 424T139 363T117 277H443L422 262ZM124 550L272 706L420 550H367L272 650L177 550H124Z" />
<glyph unicode="&#xeb;" horiz-adv-x="539" d="M280 -7Q225 -7 183 12T112 65T70 145T55 243Q55 296 69 342T110 424T178 480T272 500Q328 500 368 481T434 428T472 354T485 273Q485 265 485 252T482 230H117Q119 145 162 98T280 51Q327 51 360 65T425 114L470
74Q442 45 413 28T352 2T280 -7ZM422 262Q424 270 424 278T424 295Q424 321 416 348T389 397T342 433T273 447Q227 447 193 424T139 363T117 277H443L422 262ZM325 589V697H400V589H325ZM146 589V697H221V589H146Z" />
<glyph unicode="&#xec;" horiz-adv-x="217" d="M77 0V493H140V0H77ZM340 557L218 697H285L389 557H340Z" />
<glyph unicode="&#xed;" horiz-adv-x="217" d="M77 0V493H140V0H77ZM85 557L192 697H260L133 557H85Z" />
<glyph unicode="&#xee;" horiz-adv-x="217" d="M77 0V493H140V0H77ZM217 550L365 706L513 550H460L365 650L270 550H217Z" />
<glyph unicode="&#xef;" horiz-adv-x="217" d="M77 0V493H140V0H77ZM417 589V697H492V589H417ZM238 589V697H313V589H238Z" />
<glyph unicode="&#xf0;" horiz-adv-x="630" d="M285 -7Q219 -7 171 21T96 99T70 214Q70 278 90 330T148 421T235 480T343 501Q381 501 411 488T462 452T495 400T514 341Q523 456 494 528T392 637T199 675L204 719Q312 715 383 690T495 620T553 512T570 366Q570
289 553 222T500 103T411 22T285 -7ZM288 48Q347 48 391 74T464 146T500 252Q504 281 498 315T474 379T426 429T349 449Q280 449 231 417T155 332T129 214Q129 163 149 126T206 68T288 48ZM282 547L275 575L598 676L605 648L282 547Z" />
<glyph unicode="&#xf1;" horiz-adv-x="537" d="M77 0V493H141V378L126 373Q139 414 163 442T220 485T295 500Q375 500 420 453T465 308V0H402V285Q402 367 372 406T280 445Q238 445 207 425T158 360T141 244V0H77ZM332 573Q301 573 283 586T253 616T227 647T194
660Q171 660 157 639T143 581H105Q105 638 129 669T196 701Q224 701 241 688T271 657T297 627T333 613Q353 613 366 636T380 697H420Q420 640 396 607T332 573Z" />
<glyph unicode="&#xf2;" horiz-adv-x="579" d="M290 -7Q222 -7 169 25T85 115T55 247Q55 321 84 378T167 467T290 500Q359 500 411 468T494 378T525 247Q525 173 495 116T411 26T290 -7ZM290 49Q342 49 380 74T440 143T461 247Q461 307 440 351T381 420T290 445Q238
445 199 420T139 351T117 247Q117 188 138 144T199 74T290 49ZM265 557L143 697H210L314 557H265Z" />
<glyph unicode="&#xf3;" horiz-adv-x="579" d="M290 -7Q222 -7 169 25T85 115T55 247Q55 321 84 378T167 467T290 500Q359 500 411 468T494 378T525 247Q525 173 495 116T411 26T290 -7ZM290 49Q342 49 380 74T440 143T461 247Q461 307 440 351T381 420T290 445Q238
445 199 420T139 351T117 247Q117 188 138 144T199 74T290 49ZM266 557L373 697H441L314 557H266Z" />
<glyph unicode="&#xf4;" horiz-adv-x="579" d="M290 -7Q222 -7 169 25T85 115T55 247Q55 321 84 378T167 467T290 500Q359 500 411 468T494 378T525 247Q525 173 495 116T411 26T290 -7ZM290 49Q342 49 380 74T440 143T461 247Q461 307 440 351T381 420T290 445Q238
445 199 420T139 351T117 247Q117 188 138 144T199 74T290 49ZM142 550L290 706L438 550H385L290 650L195 550H142Z" />
<glyph unicode="&#xf5;" horiz-adv-x="579" d="M290 -7Q222 -7 169 25T85 115T55 247Q55 321 84 378T167 467T290 500Q359 500 411 468T494 378T525 247Q525 173 495 116T411 26T290 -7ZM290 49Q342 49 380 74T440 143T461 247Q461 307 440 351T381 420T290 445Q238
445 199 420T139 351T117 247Q117 188 138 144T199 74T290 49ZM359 573Q328 573 310 586T280 616T254 647T221 660Q198 660 184 639T170 581H132Q132 638 156 669T223 701Q251 701 268 688T298 657T324 627T360 613Q380 613 393 636T407 697H447Q447 640 423 607T359
573Z" />
<glyph unicode="&#xf6;" horiz-adv-x="579" d="M290 -7Q222 -7 169 25T85 115T55 247Q55 321 84 378T167 467T290 500Q359 500 411 468T494 378T525 247Q525 173 495 116T411 26T290 -7ZM290 49Q342 49 380 74T440 143T461 247Q461 307 440 351T381 420T290 445Q238
445 199 420T139 351T117 247Q117 188 138 144T199 74T290 49ZM342 589V697H417V589H342ZM163 589V697H238V589H163Z" />
<glyph unicode="&#xf7;" horiz-adv-x="560" d="M70 222V273H490V222H70ZM243 41V150H317V41H243ZM243 345V453H317V345H243Z" />
<glyph unicode="&#xf8;" horiz-adv-x="579" d="M290 -7Q222 -7 169 25T85 115T55 247Q55 321 84 378T167 467T290 500Q359 500 411 468T494 378T525 247Q525 173 495 116T411 26T290 -7ZM290 49Q342 49 380 74T440 143T461 247Q461 307 440 351T381 420T290 445Q238
445 199 420T139 351T117 247Q117 188 138 144T199 74T290 49ZM88 206L457 799H490L121 206H88Z" />
<glyph unicode="&#xf9;" horiz-adv-x="537" d="M240 -7Q188 -7 150 14T92 78T71 186V493H134V208Q134 154 148 119T189 66T257 48Q301 48 332 69T379 133T396 243V493H459V0H396V115H411Q392 54 347 24T240 -7ZM240 557L118 697H185L289 557H240Z" />
<glyph unicode="&#xfa;" horiz-adv-x="537" d="M240 -7Q188 -7 150 14T92 78T71 186V493H134V208Q134 154 148 119T189 66T257 48Q301 48 332 69T379 133T396 243V493H459V0H396V115H411Q392 54 347 24T240 -7ZM240 557L347 697H415L288 557H240Z" />
<glyph unicode="&#xfb;" horiz-adv-x="537" d="M240 -7Q188 -7 150 14T92 78T71 186V493H134V208Q134 154 148 119T189 66T257 48Q301 48 332 69T379 133T396 243V493H459V0H396V115H411Q392 54 347 24T240 -7ZM116 550L264 706L412 550H359L264 650L169 550H116Z" />
<glyph unicode="&#xfc;" horiz-adv-x="537" d="M240 -7Q188 -7 150 14T92 78T71 186V493H134V208Q134 154 148 119T189 66T257 48Q301 48 332 69T379 133T396 243V493H459V0H396V115H411Q392 54 347 24T240 -7ZM317 589V697H392V589H317ZM138 589V697H213V589H138Z" />
<glyph unicode="&#xfd;" horiz-adv-x="516" d="M133 -203L224 16L29 493H98L257 80L417 493H486L202 -203H133ZM234 557L341 697H409L282 557H234Z" />
<glyph unicode="&#xfe;" horiz-adv-x="630" d="M110 -204V697H173V339L161 353Q174 400 202 432T271 482T355 500Q420 500 465 467T535 376T559 245Q559 169 533 112T461 24T355 -7Q310 -7 271 11T203 61T163 138L173 154V-204H110ZM338 48Q390 48 425 73T478
143T496 246Q496 305 479 349T426 419T339 445Q287 445 248 419T188 347T167 246Q167 190 188 146T248 75T338 48Z" />
<glyph unicode="&#xff;" horiz-adv-x="516" d="M133 -203L224 16L29 493H98L257 80L417 493H486L202 -203H133ZM311 589V697H386V589H311ZM132 589V697H207V589H132Z" />
<glyph unicode="&#x2013;" horiz-adv-x="394" d="M19 284V332H375V284H19Z" />
<glyph unicode="&#x2014;" horiz-adv-x="1048" d="M19 284V332H1029V284H19Z" />
<glyph unicode="&#x2018;" horiz-adv-x="252" d="M36 412L169 697H213L109 412H36Z" />
<glyph unicode="&#x2019;" horiz-adv-x="251" d="M38 413L142 697H215L82 413H38Z" />
<glyph unicode="&#x201a;" horiz-adv-x="277" d="M50 -156L154 129H227L94 -156H50Z" />
<glyph unicode="&#x201c;" horiz-adv-x="415" d="M200 412L332 697H377L273 412H200ZM34 412L168 697H211L107 412H34Z" />
<glyph unicode="&#x201d;" horiz-adv-x="416" d="M204 413L308 697H380L248 413H204ZM38 413L142 697H215L82 413H38Z" />
<glyph unicode="&#x201e;" horiz-adv-x="364" d="M179 -156L283 129H355L224 -156H179ZM9 -156L113 129H186L53 -156H9Z" />
<glyph unicode="&#x2022;" horiz-adv-x="336" d="M66 145V349H270V145H66Z" />
<glyph unicode="&#x2039;" horiz-adv-x="232" d="M217 69L3 253L217 436V367L79 253L217 137V69Z" />
<glyph unicode="&#x203a;" horiz-adv-x="232" d="M14 69V137L152 253L14 367V436L228 253L14 69Z" />
</font>
</defs>
</svg>
