<svg width="145" height="28" viewBox="0 0 145 28" fill="none" xmlns="http://www.w3.org/2000/svg">
<g id="logo">
<g id="BuildScape">
<path d="M0 21.9716V0.550821H8.77637C10.4879 0.550821 11.9008 1.02004 13.0153 1.95847C14.1298 2.8765 14.687 4.21275 14.687 5.96721C14.687 7.21166 14.4084 8.2521 13.8511 9.08852C13.3138 9.90455 12.6272 10.4554 11.7914 10.741C12.866 10.945 13.7616 11.5468 14.478 12.5464C15.2144 13.5257 15.5825 14.7395 15.5825 16.188C15.5825 18.1669 15.0054 19.6255 13.8511 20.5639C12.6969 21.5024 11.1147 21.9716 9.10474 21.9716H0ZM3.43293 18.6973H8.62712C9.72167 18.6973 10.5277 18.4627 11.0451 17.9934C11.5824 17.5038 11.8511 16.7388 11.8511 15.6984C11.8511 14.6987 11.5426 13.9541 10.9257 13.4645C10.3088 12.9545 9.54256 12.6995 8.62712 12.6995H3.43293V18.6973ZM3.43293 9.39454H8.17934C9.09479 9.39454 9.78138 9.13953 10.2391 8.62951C10.6968 8.11949 10.9257 7.41567 10.9257 6.51803C10.9257 5.6204 10.6769 4.94718 10.1794 4.49836C9.70177 4.04955 9.01519 3.82514 8.11964 3.82514H3.43293V9.39454Z" fill="black"/>
<path d="M23.5737 22.3082C22.0811 22.3082 20.8572 21.8186 19.9019 20.8393C18.9666 19.8601 18.4989 18.4117 18.4989 16.494V7.25246H21.8721V15.729C21.8721 16.851 22.101 17.7078 22.5587 18.2995C23.0363 18.8911 23.6533 19.1869 24.4095 19.1869C25.2653 19.1869 25.9618 18.8809 26.4991 18.2689C27.0365 17.6568 27.3051 16.7592 27.3051 15.576V7.25246H30.6784V21.9716H27.6633L27.4842 20.2273C27.1061 20.7781 26.5887 21.2678 25.932 21.6962C25.2752 22.1042 24.4891 22.3082 23.5737 22.3082Z" fill="black"/>
<path d="M34.8116 21.9716V7.25246H38.155V21.9716H34.8116ZM36.4535 4.83497C35.8763 4.83497 35.3788 4.62077 34.9609 4.19235C34.543 3.76394 34.334 3.25392 34.334 2.6623C34.334 2.07067 34.543 1.56066 34.9609 1.13224C35.3788 0.703826 35.8763 0.489619 36.4535 0.489619C37.0306 0.489619 37.5281 0.703826 37.9461 1.13224C38.364 1.56066 38.5729 2.07067 38.5729 2.6623C38.5729 3.25392 38.364 3.76394 37.9461 4.19235C37.5281 4.62077 37.0306 4.83497 36.4535 4.83497Z" fill="black"/>
<path d="M42.205 21.9716V0.153005H45.5783V21.9716H42.205Z" fill="black"/>
<path d="M55.41 22.3082C54.0965 22.3082 52.9124 22.0022 51.8576 21.3902C50.8228 20.7781 49.9969 19.9009 49.3799 18.7585C48.7829 17.5956 48.4844 16.2084 48.4844 14.5967C48.4844 12.9851 48.7829 11.608 49.3799 10.4656C49.9969 9.30273 50.8228 8.4153 51.8576 7.80328C52.9124 7.19126 54.0965 6.88525 55.41 6.88525C56.9224 6.88525 58.1662 7.44627 59.1414 8.56831V0.153005H62.5146V21.9716H59.5892L59.4399 20.2885C58.9424 20.9209 58.3454 21.4208 57.6488 21.788C56.9722 22.1348 56.2259 22.3082 55.41 22.3082ZM55.5592 19.1869C56.614 19.1869 57.4896 18.7891 58.1861 17.9934C58.8827 17.1978 59.231 16.0656 59.231 14.5967C59.231 13.1279 58.8827 11.9956 58.1861 11.2C57.4896 10.4044 56.614 10.0066 55.5592 10.0066C54.5045 10.0066 53.6288 10.4044 52.9323 11.2C52.2357 11.9956 51.8875 13.1279 51.8875 14.5967C51.8875 16.0656 52.2357 17.1978 52.9323 17.9934C53.6288 18.7891 54.5045 19.1869 55.5592 19.1869Z" fill="black"/>
<path d="M74.0189 22.4C72.2676 22.4 70.6556 22.0226 69.183 21.2678C67.7302 20.5129 66.566 19.2379 65.6903 17.4426L68.5859 15.7596C69.183 16.7796 69.9094 17.5854 70.7651 18.1771C71.6208 18.7483 72.7453 19.0339 74.1383 19.0339C75.5314 19.0339 76.5066 18.7789 77.0638 18.2689C77.6409 17.7384 77.9295 17.0244 77.9295 16.1268C77.9295 15.5556 77.8001 15.0659 77.5414 14.6579C77.3026 14.2499 76.7852 13.8725 75.9891 13.5257C75.213 13.1585 74.009 12.7913 72.3771 12.424C70.4467 11.9548 69.0138 11.2102 68.0785 10.1902C67.163 9.17013 66.7053 7.87468 66.7053 6.30383C66.7053 5.05938 66.9939 3.96794 67.571 3.02951C68.168 2.07068 68.9939 1.32605 70.0487 0.795629C71.1233 0.26521 72.3771 0 73.81 0C75.7006 0 77.2927 0.428416 78.5862 1.28525C79.8798 2.12168 80.8649 3.11111 81.5415 4.25355L78.825 6.39563C78.4867 5.90601 78.0887 5.4368 77.631 4.98798C77.1732 4.51876 76.6359 4.14135 76.019 3.85574C75.4021 3.54973 74.6558 3.39672 73.7801 3.39672C72.7453 3.39672 71.8995 3.63133 71.2427 4.10055C70.6059 4.54936 70.2875 5.23279 70.2875 6.15082C70.2875 6.55884 70.377 6.95665 70.5561 7.34426C70.7552 7.71148 71.1731 8.06849 71.8099 8.4153C72.4666 8.76211 73.4716 9.09873 74.8249 9.42514C77.2131 9.97596 78.9345 10.8022 79.9893 11.9038C81.044 13.0055 81.5714 14.3927 81.5714 16.0656C81.5714 18.1056 80.8749 19.6765 79.4818 20.7781C78.1086 21.8594 76.2877 22.4 74.0189 22.4Z" fill="black"/>
<path d="M90.9753 22.3082C89.6619 22.3082 88.4778 21.992 87.423 21.3596C86.3881 20.7067 85.5623 19.8091 84.9453 18.6667C84.3483 17.5038 84.0498 16.1472 84.0498 14.5967C84.0498 13.0463 84.3483 11.6998 84.9453 10.5574C85.5623 9.39454 86.3881 8.4969 87.423 7.86448C88.4778 7.21166 89.6619 6.88525 90.9753 6.88525C92.1495 6.88525 93.2142 7.13006 94.1695 7.61967C95.1446 8.10929 95.9407 8.81312 96.5576 9.73115L93.8709 11.7508C93.254 10.588 92.2888 10.0066 90.9753 10.0066C89.9405 10.0066 89.0947 10.4044 88.438 11.2C87.7812 11.9956 87.4529 13.1279 87.4529 14.5967C87.4529 16.0656 87.7812 17.1978 88.438 17.9934C89.0947 18.7891 89.9405 19.1869 90.9753 19.1869C92.2689 19.1869 93.2441 18.6157 93.9008 17.4732L96.5576 19.4623C95.9407 20.3599 95.1446 21.0638 94.1695 21.5738C93.2142 22.0634 92.1495 22.3082 90.9753 22.3082Z" fill="black"/>
<path d="M104.176 22.1858C102.624 22.247 101.34 21.9002 100.325 21.1454C99.3301 20.3905 98.8326 19.2991 98.8326 17.871C98.8326 16.8306 99.1411 15.9432 99.758 15.2087C100.375 14.4743 101.171 13.9031 102.146 13.4951C103.121 13.0667 104.126 12.8423 105.161 12.8219C105.679 12.7811 106.166 12.8219 106.624 12.9443C107.082 13.0667 107.49 13.2401 107.848 13.4645V12.1792C107.848 11.2204 107.649 10.5982 107.251 10.3126C106.853 10.027 106.266 9.88416 105.49 9.88416C104.654 9.88416 103.768 10.0474 102.833 10.3738C101.917 10.6798 101.131 11.0674 100.474 11.5366L98.952 8.87432C99.768 8.3439 100.753 7.88488 101.907 7.49727C103.062 7.08925 104.256 6.88525 105.49 6.88525C107.34 6.88525 108.733 7.27286 109.669 8.04809C110.604 8.80292 111.072 10.18 111.072 12.1792V18.9421C111.072 19.3705 111.161 19.6153 111.34 19.6765C111.539 19.7377 111.977 19.6663 112.654 19.4623V21.635C112.355 21.7778 111.977 21.9002 111.52 22.0022C111.082 22.1246 110.604 22.1858 110.087 22.1858C109.47 22.1858 108.992 22.0838 108.654 21.8798C108.335 21.6554 108.107 21.2882 107.967 20.7781C107.47 21.2066 106.893 21.5432 106.236 21.788C105.579 22.0124 104.892 22.145 104.176 22.1858ZM104.116 19.1869C105.231 19.1461 106.146 18.9217 106.863 18.5137C107.599 18.1056 107.947 17.5242 107.908 16.7694C107.888 16.2798 107.639 15.9432 107.161 15.7596C106.703 15.576 106.126 15.5046 105.43 15.5454C104.455 15.5658 103.649 15.8208 103.012 16.3104C102.375 16.7796 102.067 17.31 102.086 17.9016C102.126 18.8197 102.803 19.2481 104.116 19.1869Z" fill="black"/>
<path d="M115.406 28V7.25246H118.331L118.51 8.87432C119.525 7.54827 120.859 6.88525 122.51 6.88525C123.844 6.88525 125.028 7.19126 126.063 7.80328C127.117 8.4153 127.943 9.30273 128.54 10.4656C129.137 11.608 129.436 12.9851 129.436 14.5967C129.436 16.2084 129.137 17.5956 128.54 18.7585C127.943 19.9009 127.117 20.7781 126.063 21.3902C125.028 22.0022 123.844 22.3082 122.51 22.3082C121.774 22.3082 121.087 22.1654 120.451 21.8798C119.814 21.5738 119.256 21.1556 118.779 20.6251V28H115.406ZM122.391 19.1869C123.446 19.1869 124.321 18.7891 125.018 17.9934C125.714 17.1978 126.063 16.0656 126.063 14.5967C126.063 13.1279 125.714 11.9956 125.018 11.2C124.321 10.4044 123.446 10.0066 122.391 10.0066C121.336 10.0066 120.46 10.4044 119.764 11.2C119.067 11.9956 118.719 13.1279 118.719 14.5967C118.719 16.0656 119.067 17.1978 119.764 17.9934C120.46 18.7891 121.336 19.1869 122.391 19.1869Z" fill="black"/>
<path d="M138.612 22.3082C136.522 22.3082 134.831 21.6656 133.537 20.3803C132.243 19.0747 131.597 17.1468 131.597 14.5967C131.597 13.0055 131.885 11.6386 132.462 10.4962C133.039 9.33334 133.845 8.4459 134.88 7.83388C135.915 7.20146 137.099 6.88525 138.433 6.88525C139.766 6.88525 140.9 7.22186 141.836 7.89508C142.771 8.54791 143.488 9.44554 143.985 10.588C144.483 11.7304 144.731 13.0157 144.731 14.4437V15.2393H134.91C134.99 16.7082 135.368 17.7588 136.045 18.3913C136.721 19.0033 137.597 19.3093 138.671 19.3093C139.607 19.3093 140.373 19.0849 140.97 18.6361C141.567 18.1669 142.084 17.4732 142.522 16.5552L145 18.3301C144.264 19.7377 143.358 20.7577 142.283 21.3902C141.229 22.0022 140.005 22.3082 138.612 22.3082ZM135.059 12.5771H141.418C141.259 11.6182 140.91 10.8838 140.373 10.3738C139.856 9.84335 139.189 9.57814 138.373 9.57814C137.497 9.57814 136.771 9.82295 136.194 10.3126C135.637 10.8022 135.258 11.557 135.059 12.5771Z" fill="black"/>
</g>
</g>
</svg>
