<svg width="145" height="26" viewBox="0 0 145 26" fill="none" xmlns="http://www.w3.org/2000/svg">
<g id="logo">
<g id="BuildScape">
<path d="M0 20.5714V0.142857H9.55261C13.4307 0.142857 15.3697 1.72857 15.3697 4.9C15.3697 7.22381 14.1055 8.88571 11.5772 9.88571C14.2766 10.3905 15.6264 11.9381 15.6264 14.5286C15.6264 18.5571 13.502 20.5714 9.2532 20.5714H0ZM9.09636 17.2857C10.7693 17.2857 11.6057 16.4286 11.6057 14.7143C11.6057 12.5905 10.3558 11.5286 7.85595 11.5286H6.71534V9.08571C9.85202 8.5619 11.4204 7.24762 11.4204 5.14286C11.4204 4 10.717 3.42857 9.31023 3.42857H3.77827V17.2857H9.09636Z" fill="white"/>
<path d="M31.9656 5.57143V20.5714H29.0143L28.558 18.6571C26.8376 19.9333 25.0126 20.5714 23.0831 20.5714C20.0225 20.5714 18.4921 18.7571 18.4921 15.1286V5.57143H22.2704V15.0286C22.2704 16.6857 22.9928 17.5143 24.4376 17.5143C25.6637 17.5143 26.9136 17.0238 28.1873 16.0429V5.57143H31.9656Z" fill="white"/>
<path d="M39.3225 0.142857V3.14286H35.5443V0.142857H39.3225ZM39.3225 5.57143V20.5714H35.5443V5.57143H39.3225Z" fill="white"/>
<path d="M46.6795 0.142857V20.5714H42.9012V0.142857H46.6795Z" fill="white"/>
<path d="M59.7394 9.48571C58.96 8.97143 57.981 8.71429 56.8024 8.71429C54.4546 8.71429 53.2807 10.0333 53.2807 12.6714C53.2807 15.8048 54.5021 17.3714 56.9449 17.3714C57.9335 17.3714 58.865 17.2333 59.7394 16.9571V9.48571ZM63.5177 19.6714C61.227 20.2714 58.9885 20.5714 56.8024 20.5714C51.9643 20.5714 49.5452 17.9714 49.5452 12.7714C49.5452 7.97143 51.912 5.57143 56.6455 5.57143C57.6531 5.57143 58.6844 5.80952 59.7394 6.28571V0.142857H63.5177V19.6714Z" fill="white"/>
<path d="M67.0821 19.7143V16.2857C69.1257 17.0476 71.4354 17.4286 74.0113 17.4286C77.1385 17.4286 78.7021 16.381 78.7021 14.2857C78.7021 12.7619 77.7421 12 75.822 12H72.6283C68.4556 12 66.3692 10.0952 66.3692 6.28571C66.3692 2.09524 69.3396 0 75.2802 0C77.5615 0 79.7239 0.333333 81.7675 1V4.42857C79.7239 3.66667 77.5615 3.28571 75.2802 3.28571C71.8584 3.28571 70.1475 4.28571 70.1475 6.28571C70.1475 7.80952 70.9744 8.57143 72.6283 8.57143H75.822C80.2609 8.57143 82.4803 10.4762 82.4803 14.2857C82.4803 18.5714 79.6573 20.7143 74.0113 20.7143C71.4354 20.7143 69.1257 20.381 67.0821 19.7143Z" fill="white"/>
<path d="M96.3815 20.1429C95.1459 20.4286 93.8627 20.5714 92.532 20.5714C87.2091 20.5714 84.5477 17.9762 84.5477 12.7857C84.5477 7.97619 87.2091 5.57143 92.532 5.57143C93.8627 5.57143 95.1459 5.71429 96.3815 6V9C95.1459 8.71429 93.9577 8.57143 92.8171 8.57143C89.823 8.57143 88.326 9.97619 88.326 12.7857C88.326 15.9762 89.823 17.5714 92.8171 17.5714C93.9577 17.5714 95.1459 17.4286 96.3815 17.1429V20.1429Z" fill="white"/>
<path d="M98.1637 15.9C98.1637 12.919 100.331 11.4286 104.665 11.4286C105.682 11.4286 106.699 11.5238 107.716 11.7143V10.5857C107.716 9.24286 106.752 8.57143 104.822 8.57143C103.187 8.57143 101.372 8.80952 99.3756 9.28571V6.28571C101.372 5.80952 103.187 5.57143 104.822 5.57143C109.27 5.57143 111.495 7.21905 111.495 10.5143V20.5714H109.299L107.959 19.2286C106.657 20.1238 105.221 20.5714 103.653 20.5714C99.9934 20.5714 98.1637 19.0143 98.1637 15.9ZM107.716 14.2857C106.766 14.0952 105.749 14 104.665 14C102.85 14 101.942 14.619 101.942 15.8571C101.942 17.1905 102.702 17.8571 104.223 17.8571C105.478 17.8571 106.642 17.4667 107.716 16.6857V14.2857Z" fill="white"/>
<path d="M118.852 16.6571C119.793 17.1714 120.805 17.4286 121.888 17.4286C124.141 17.4286 125.267 15.8429 125.267 12.6714C125.267 9.97619 124.022 8.62857 121.532 8.62857C120.458 8.62857 119.564 8.69524 118.852 8.82857V16.6571ZM115.073 6.18571C117.06 5.77619 119.16 5.57143 121.375 5.57143C126.46 5.57143 129.003 7.94762 129.003 12.7C129.003 17.9476 126.636 20.5714 121.903 20.5714C120.895 20.5714 119.878 20.3333 118.852 19.8571V26H115.073V6.18571Z" fill="white"/>
<path d="M138.185 5.57143C142.728 5.57143 145 7.89524 145 12.5429C145 13.1619 144.957 13.781 144.872 14.4H134.934C134.934 16.5143 136.483 17.5714 139.582 17.5714C141.093 17.5714 142.605 17.4286 144.116 17.1429V20.1429C142.795 20.4286 141.188 20.5714 139.297 20.5714C133.87 20.5714 131.156 18.0143 131.156 12.9C131.156 8.01429 133.499 5.57143 138.185 5.57143ZM134.934 11.7714H141.322V11.6571C141.322 9.58095 140.276 8.54286 138.185 8.54286C136.189 8.54286 135.105 9.61905 134.934 11.7714Z" fill="white"/>
</g>
</g>
</svg>
