<svg width="65" height="65" viewBox="0 0 65 65" fill="none" xmlns="http://www.w3.org/2000/svg">
<path d="M13.1397 0.293677C12.6572 0.433325 12.2256 0.572974 12.2002 0.598364C12.1494 0.649146 14.2188 8.82493 14.3457 9.02805C14.4092 9.12961 14.6631 9.10422 15.3106 8.95188C15.793 8.83762 16.2373 8.69797 16.2881 8.64719C16.377 8.57102 14.7393 1.79172 14.2695 0.2302C14.1934 -0.0237059 14.2568 -0.0364012 13.1397 0.293677Z" fill="black"/>
<path d="M45.0938 0.471362C44.6494 0.776049 44.5732 1.01726 44.2432 3.31511C44.0654 4.50847 43.8623 5.60027 43.7988 5.73992C43.5703 6.15886 43.0879 6.38738 42.6562 6.29851C42.3262 6.22234 41.9961 5.85417 40.8027 4.26726C39.2666 2.21062 38.9238 1.93132 38.3018 2.15984C38.1113 2.23601 37.2354 2.84538 36.3467 3.51824L34.7217 4.73699L33.5664 4.66081C30.2148 4.45769 26.5586 5.2448 23.3975 6.84441C21.3789 7.86003 19.8301 8.98992 18.2178 10.6149C14.8535 13.9792 12.8857 18.029 12.2891 22.7516C12.1494 23.945 12.124 24.0085 11.832 24.0085C11.667 24.0085 11.375 24.1608 11.1846 24.3512C10.8926 24.6559 10.7783 24.986 10.4736 26.5094C10.2705 27.5124 10.0547 28.3249 9.99121 28.3249C9.94043 28.3249 9.22949 27.8551 8.4043 27.2839C6.27148 25.7858 6.43652 25.7477 4.0625 28.1471C2.4502 29.7594 2.1582 30.1149 2.1582 30.4323C2.1582 30.7116 2.47559 31.2702 3.2373 32.4001C3.83398 33.2633 4.31641 33.9997 4.31641 34.0378C4.31641 34.0758 3.50391 34.279 2.51367 34.4821C0.977539 34.7868 0.647461 34.901 0.355469 35.193L0 35.5358V38.0368V40.5378L0.355469 40.8805C0.647461 41.1725 0.977539 41.2868 2.47559 41.5915C3.45312 41.7946 4.27832 41.9723 4.30371 41.9977C4.3418 42.0231 3.85938 42.7848 3.25 43.6862C2.24707 45.1589 2.13281 45.362 2.20898 45.7428C2.27246 46.0729 2.7041 46.5807 4.10059 47.9772C6.44922 50.3258 6.27148 50.2878 8.36621 48.8405C9.24219 48.2438 9.97852 47.7487 10.0293 47.7487C10.0674 47.7487 10.2705 48.5612 10.4736 49.5514C10.7783 51.0876 10.8926 51.4176 11.1846 51.7096L11.5273 52.0651H14.0283H16.5293L16.8721 51.7096C17.1641 51.4176 17.2783 51.0876 17.583 49.5514C17.7861 48.5612 17.9893 47.7487 18.0273 47.7487C18.0781 47.7487 18.8145 48.2438 19.6904 48.8405C21.6582 50.1989 21.7217 50.1989 23.0547 48.8786L23.9688 47.9772L24.0195 49.9831C24.0576 51.7096 24.1084 52.0905 24.3369 52.5983C24.6924 53.3854 25.1748 53.9948 25.708 54.363L26.1396 54.6549L26.1777 58.1589L26.2158 61.6501L26.5713 62.4118C27.0283 63.402 27.7773 64.151 28.7422 64.5954C29.5039 64.9382 29.5674 64.9508 32.1826 64.9889C35.0771 65.0397 36.0547 64.9255 36.8799 64.443C37.6416 63.9987 38.3398 63.2497 38.708 62.4753C39.0381 61.777 39.0381 61.7516 39.0762 58.2223L39.127 54.6676L39.6221 54.3122C39.9014 54.1217 40.2949 53.6901 40.5107 53.36C41.1709 52.319 41.2598 51.7858 41.2598 48.8913C41.2598 44.6891 41.6406 43.8132 44.2305 41.9723C45.9316 40.7663 46.2617 40.4616 46.1348 40.2331C46.0713 40.1315 45.7666 39.7507 45.4365 39.4079L44.8652 38.7604L44.4209 39.1286C44.1924 39.3317 43.4561 39.8776 42.8086 40.3473C40.9551 41.6676 40.041 42.8356 39.457 44.5749C39.2158 45.2985 39.1777 45.7936 39.1143 48.5866L39.0381 51.7731L38.6826 52.2301C38.0098 53.1061 38.1494 53.0934 32.5254 53.0553L27.4854 53.0173L27.0664 52.7253C26.2666 52.1413 26.2285 51.9635 26.1396 48.3835C26.0635 44.7526 25.9619 44.2829 25.0225 42.8356C24.4004 41.8835 23.8164 41.3122 22.3438 40.2585C20.7695 39.1286 19.957 38.4303 18.8906 37.2497C16.6689 34.7995 15.1328 31.651 14.46 28.1344C14.1934 26.776 14.2314 22.9548 14.5234 21.5964C15.6914 16.1374 18.9033 11.7067 23.5625 9.12956C26 7.78386 28.501 7.03484 31.3955 6.80632C32.335 6.73015 32.373 6.74285 32.373 6.99675C32.373 7.37761 32.5 7.59343 33.9727 9.5612C35.3311 11.3893 35.5215 11.8337 35.1279 12.3415C34.7344 12.8493 34.5186 12.862 32.0557 12.5065C29.4658 12.1384 29.1104 12.1637 28.8311 12.8112C28.6025 13.3063 27.7393 19.5651 27.8408 19.9714C27.9932 20.5426 28.4121 20.7077 30.6592 21.0378C31.8145 21.2028 32.9062 21.3805 33.084 21.4186C33.7314 21.5837 33.9854 22.5231 33.541 23.069C33.4268 23.2214 32.5127 23.945 31.5352 24.6813C29.7324 26.027 29.5801 26.1921 29.5801 26.738C29.5801 27.0807 33.5918 32.5397 34.0107 32.7555C34.5566 33.0475 34.8867 32.9079 36.7783 31.4987C37.8066 30.7243 38.7842 30.0641 38.9365 30.026C39.3555 29.9118 39.9014 30.1403 40.1172 30.5085C40.2822 30.8132 40.2695 31.0798 40.0029 32.9841C39.8506 34.152 39.7363 35.3454 39.7617 35.612C39.8252 36.4499 40.0664 36.5387 43.4307 37.0212C46.96 37.5417 47.5059 37.5671 47.8613 37.2116C48.166 36.9069 48.1787 36.8688 48.5596 34.2282C48.8389 32.2477 48.8896 32.0446 49.1943 31.778C49.5244 31.4987 49.9307 31.4225 50.3369 31.5749C50.4512 31.6257 51.1494 32.4635 51.8857 33.4538C52.6221 34.4313 53.333 35.3454 53.4727 35.4596C54.0693 35.9801 54.3994 35.8278 57.3828 33.5934C60.2012 31.4733 60.5312 31.1432 60.3789 30.5466C60.3408 30.3942 59.6934 29.4548 58.9316 28.4391C58.1699 27.4235 57.5098 26.4841 57.459 26.3317C57.3447 25.9635 57.5605 25.4557 57.9541 25.2018C58.2715 24.9987 58.4111 24.9987 60.6836 25.3161C63.1465 25.6589 63.4893 25.6589 63.8447 25.2272C63.9971 25.0495 64.9873 18.8796 65 18.0798C65 17.9274 64.873 17.6481 64.7207 17.4704C64.4541 17.1657 64.2383 17.1149 61.9658 16.7848C60.4551 16.5563 59.4521 16.3532 59.3379 16.2389C59.0459 15.9469 58.9189 15.3122 59.084 14.9821C59.1602 14.8171 59.998 14.0934 60.9375 13.3825C62.8418 11.9352 63.2227 11.5671 63.2227 11.1227C63.2227 10.9196 62.5371 9.89128 61.3057 8.24089C58.8809 4.99089 58.8555 4.9655 58.2588 4.9655C57.8525 4.9655 57.5098 5.16863 55.8975 6.36199C54.8691 7.1364 53.8916 7.79656 53.7393 7.83464C53.3076 7.9489 52.7617 7.61882 52.6094 7.1491C52.5078 6.81902 52.5459 6.28581 52.7744 4.73699C53.1299 2.23601 53.1299 2.00749 52.7871 1.60124C52.5078 1.28386 52.3174 1.24578 49.0674 0.776049C47.1885 0.496752 45.5762 0.268237 45.5127 0.268237C45.4365 0.268237 45.2461 0.357104 45.0938 0.471362ZM50.7432 3.23894C50.7812 3.26433 50.7051 3.93718 50.5908 4.73699C50.2861 6.78093 50.3115 7.45378 50.7051 8.2282C51.4795 9.77702 53.4092 10.4499 54.9072 9.70085C55.1104 9.5866 55.9102 9.05339 56.6592 8.4821C57.4082 7.92351 58.043 7.49187 58.0684 7.51726C58.5762 8.16472 60.4551 10.7165 60.4932 10.8434C60.5312 10.9323 60.0234 11.3893 59.3379 11.8844C57.332 13.3444 56.8496 14.0426 56.8496 15.4391C56.8369 16.7341 57.5986 17.8766 58.7539 18.3717C59.0078 18.4733 59.9854 18.6764 60.9248 18.8161C61.8643 18.943 62.6514 19.0827 62.6768 19.0954C62.6895 19.1208 62.5625 20.0475 62.3975 21.152C62.2197 22.2692 62.0801 23.2214 62.0801 23.2594C62.0801 23.2975 61.3564 23.2214 60.4678 23.0944C59.5664 22.9548 58.5508 22.8786 58.1953 22.904C56.2783 23.0944 54.9707 24.8717 55.3516 26.7633C55.4658 27.3219 55.7197 27.7409 56.6338 28.9723C57.2559 29.7975 57.7637 30.5085 57.7637 30.5339C57.7637 30.5592 57.002 31.1559 56.0625 31.8542L54.3613 33.1364L53.2314 31.651C51.7842 29.7467 51.2891 29.404 49.9053 29.404C48.75 29.4167 48.1279 29.6833 47.4297 30.5085C46.8838 31.1432 46.668 31.8288 46.4521 33.6188C46.3633 34.3298 46.2617 34.9772 46.2109 35.0661C46.1348 35.1676 45.6016 35.1423 44.0654 34.9264C41.7041 34.5837 41.9199 34.8122 42.2119 32.8952C42.4912 31.0417 42.4658 30.3815 42.0469 29.5817C41.4121 28.3757 40.2188 27.7155 38.8984 27.8551C38.0605 27.944 37.6924 28.1344 36.0801 29.3532L34.7471 30.3561L33.5029 28.6803C32.8047 27.7663 32.2461 26.9665 32.2461 26.9284C32.2461 26.8776 32.8682 26.3571 33.6426 25.7858C34.4043 25.2018 35.1787 24.5163 35.3564 24.2624C36.4229 22.7135 35.9658 20.568 34.3535 19.6286C33.9346 19.3874 33.3633 19.2477 31.9795 19.0319C30.9766 18.8923 30.1387 18.7526 30.1133 18.7399C30.0498 18.6891 30.6211 14.6901 30.71 14.5885C30.748 14.5378 31.5605 14.6139 32.5 14.7536C34.7852 15.0837 35.585 14.9313 36.5498 13.9665C37.1338 13.3825 37.3496 12.8747 37.4258 11.9352C37.502 10.8561 37.2734 10.3483 35.9912 8.64714C35.458 7.9489 35.0391 7.31413 35.0645 7.25066C35.1025 7.1491 38.2764 4.7116 38.3906 4.7116C38.416 4.7116 38.9238 5.37175 39.5332 6.17156C40.1299 6.97136 40.8408 7.77117 41.1074 7.9362C42.4531 8.81218 44.04 8.62175 45.2207 7.44109C45.792 6.8571 46.0078 6.24773 46.2744 4.33074C46.3887 3.53093 46.5029 2.8073 46.5283 2.73113C46.5537 2.62956 47.2012 2.68035 48.6357 2.89617C49.7656 3.06121 50.7178 3.21355 50.7432 3.23894ZM13 30.8512C13.1143 31.2321 13.2031 31.5622 13.2031 31.5749C13.2031 31.5876 12.8984 31.6764 12.543 31.7526C9.94043 32.362 7.8584 34.736 7.55371 37.4274C7.28711 39.6999 8.56934 42.3024 10.5117 43.4831C13.584 45.3493 17.3799 44.5495 19.3604 41.6169L19.7666 41.0075L20.1348 41.3122C20.3379 41.4645 20.8838 41.8708 21.3408 42.2008C22.3438 42.8991 23.1055 43.737 23.4863 44.5368L23.7656 45.1208L22.6104 46.276L21.4678 47.4186L20.1855 46.5553C19.4746 46.0729 18.6875 45.6286 18.4209 45.5651C17.5322 45.3366 16.5293 45.819 16.0723 46.7077C15.9834 46.8981 15.7676 47.6979 15.6025 48.4723L15.3105 49.9069H14.0156H12.7334L12.5176 48.8278C12.0605 46.5173 11.6797 45.8952 10.5371 45.5905C9.80078 45.3874 9.30566 45.5778 7.8457 46.568L6.58887 47.4186L5.62402 46.4411L4.64648 45.4762L5.50977 44.2067C5.97949 43.5085 6.42383 42.7214 6.47461 42.4548C6.72852 41.3883 6.04297 40.2712 4.93848 39.9538C4.5957 39.8522 3.82129 39.6618 3.2373 39.5475L2.1582 39.3317V38.0368V36.7419L3.58008 36.4499C4.36719 36.2975 5.16699 36.0944 5.34473 35.9928C6.16992 35.5739 6.67773 34.4948 6.4873 33.6442C6.42383 33.3903 6.00488 32.6159 5.53516 31.943C5.07812 31.2702 4.69727 30.6735 4.69727 30.6227C4.69727 30.5846 5.12891 30.1149 5.64941 29.5944L6.58887 28.655L7.92188 29.569C9.36914 30.5466 9.83887 30.7116 10.6133 30.4958C11.4639 30.2673 12.0479 29.5563 12.251 28.5153C12.3525 28.0075 12.3525 28.0202 12.5684 29.0866C12.6953 29.6833 12.8857 30.4704 13 30.8512ZM14.4219 34.444C15.1582 35.904 15.9834 37.0973 17.3799 38.7223L18.0781 39.5221L17.7734 40.0934C17.3672 40.8678 16.377 41.7184 15.5137 42.0358C14.9297 42.2643 14.5996 42.3024 13.7744 42.2643C12.0732 42.1755 10.8799 41.3503 10.1309 39.776C9.77539 39.027 9.75 38.9001 9.80078 37.8717C9.83887 37.0846 9.94043 36.6022 10.1436 36.1833C10.7783 34.8503 12.2637 33.8219 13.6094 33.7966C14.0664 33.7839 14.1045 33.8219 14.4219 34.444ZM36.9434 56.318V57.3971H32.627H28.3105V56.4069C28.3105 55.861 28.3486 55.3659 28.3994 55.3278C28.4375 55.277 30.3799 55.2389 32.7158 55.2389H36.9434V56.318ZM36.9434 60.3424C36.9434 61.32 36.6133 62.0436 35.9658 62.4753C35.5088 62.7926 35.4453 62.7926 32.7666 62.8307C29.6816 62.8688 29.4785 62.818 28.7803 61.9548C28.501 61.5993 28.3994 61.3073 28.3486 60.7233C28.2344 59.4538 27.8535 59.5553 32.6904 59.5553H36.9434V60.3424Z" fill="black"/>
<path d="M44.6113 10.4876C41.9834 11.0589 39.8252 12.7601 38.6699 15.1468C37.9971 16.556 37.7939 17.4573 37.7939 18.9935C37.8066 21.304 38.6445 23.2972 40.3076 24.973C41.1709 25.8363 41.5391 26.1029 42.542 26.5853C44.1035 27.3343 44.8398 27.4993 46.5283 27.4866C47.6582 27.4739 48.1152 27.4105 48.9404 27.1439C51.3018 26.3695 53.0664 24.8206 54.1582 22.5609C55.7705 19.222 54.9199 15.0325 52.1396 12.5189C51.1875 11.6556 49.4229 10.7415 48.1787 10.4876C47.0869 10.2591 45.6523 10.2591 44.6113 10.4876ZM47.8994 12.6458C50.1973 13.2425 52.0254 15.0579 52.6348 17.3431C53.2061 19.4378 52.5205 21.8499 50.8955 23.4749C48.3564 26.014 44.3828 25.9886 41.8184 23.4368C39.2666 20.8851 39.292 16.8988 41.8691 14.3724C43.5449 12.7347 45.7793 12.0872 47.8994 12.6458Z" fill="black"/>
<path d="M3.47853 6.80633C3.16115 7.26336 2.90724 7.65692 2.93263 7.68231C3.38966 8.03778 10.2451 12.8747 10.3467 12.9128C10.4736 12.9636 11.7559 11.3386 11.6543 11.2497C11.3623 10.9958 4.25294 5.98113 4.17677 5.98113C4.12599 5.98113 3.80861 6.3493 3.47853 6.80633Z" fill="black"/>
<path d="M23.7656 12.9C20.7441 15.109 18.5986 18.4352 17.8496 22.1041C16.6689 27.9186 19.0557 33.9234 23.9307 37.402C24.4892 37.8082 25.8096 38.5445 26.8506 39.0523C28.6025 39.9029 28.831 40.0553 29.6055 40.8678C30.5703 41.8961 31.1797 43.0514 31.3828 44.232C31.624 45.7428 31.4844 45.5904 32.665 45.5904H33.7187L33.6299 44.7272C33.5029 43.5592 33.4014 43.1275 33.0078 42.1627C32.5635 41.0582 31.8906 40.0553 31.0019 39.192C30.0244 38.2398 29.5674 37.9352 27.8154 37.11C25.9111 36.2213 24.8701 35.5357 23.7021 34.4186C21.5566 32.3873 20.1475 29.5436 19.792 26.5475C19.2842 22.0787 21.2392 17.4703 24.7939 14.8297C25.2637 14.4869 25.6445 14.1568 25.6445 14.0934C25.6445 14.0045 24.6289 12.3287 24.5781 12.3287C24.5654 12.3287 24.1973 12.5826 23.7656 12.9Z" fill="black"/>
<path d="M5.37011 17.572C3.12304 18.1433 1.25683 18.6511 1.20605 18.6892C1.12987 18.778 1.51073 20.4538 1.65038 20.6189C1.71386 20.695 9.29296 18.905 10.1182 18.613C10.3086 18.5495 9.80077 16.5183 9.59765 16.531C9.52148 16.531 7.61718 17.0134 5.37011 17.572Z" fill="black"/>
<path d="M53.1934 41.3379V42.417H56.9385H60.6836V41.3379V40.2588H56.9385H53.1934V41.3379Z" fill="black"/>
<path d="M52.0508 46.6826C51.6826 47.1396 51.4287 47.5586 51.4922 47.6094C51.5556 47.6602 53.0029 48.8662 54.7041 50.2881L57.8144 52.8652L58.4873 52.1162C58.8554 51.71 59.1601 51.3291 59.1601 51.2783C59.1601 51.2021 54.0693 46.8984 52.9267 46.0098C52.7617 45.8701 52.622 45.9717 52.0508 46.6826Z" fill="black"/>
<path d="M31.6113 49.3359V50.9229H32.6904H33.7695V49.3359V47.749H32.6904H31.6113V49.3359Z" fill="black"/>
<path d="M46.7188 52.5732V56.3818H47.7979H48.877L48.8516 52.5986L48.8135 48.8281L47.7725 48.79L46.7188 48.752V52.5732Z" fill="black"/>
</svg>
