<svg width="65" height="65" viewBox="0 0 65 65" fill="none" xmlns="http://www.w3.org/2000/svg">
<path d="M30.6885 0.647075C24.9375 3.78282 19.4912 5.7125 13.5498 6.72813C11.2012 7.12168 9.47461 7.29942 6.68164 7.42637C4.14258 7.52793 3.8125 7.64219 3.29199 8.56895L3 9.08946L3.03809 18.6363C3.08887 28.9703 3.10156 29.1481 3.85059 32.8043C4.6377 36.6637 5.7168 39.7994 7.51953 43.4303C11.7598 51.9869 18.6152 58.7789 27.502 63.2223C30.4854 64.7203 31.2725 65.0123 32.2754 64.9996C33.0117 64.9996 33.3545 64.9107 34.2178 64.5299C39.8799 62.0289 44.6787 58.8043 48.7031 54.8053C54.8096 48.7242 58.834 41.2594 60.5732 32.8043C61.3096 29.2496 61.3223 28.9449 61.373 18.649C61.4238 9.26719 61.4238 9.10215 61.1699 8.60704C60.7002 7.68028 60.2812 7.52793 57.8057 7.42637C49.2998 7.04551 41.6191 4.95079 34.5605 1.06602C32.3896 -0.127339 32.1357 -0.15273 30.6885 0.647075ZM32.999 2.69102C34.5479 3.57969 37.6328 5.03965 39.5117 5.77598C45.415 8.08653 51.2168 9.31797 57.1963 9.55918L59.2656 9.63536L59.2148 18.8522C59.1641 28.7799 59.1514 28.8561 58.415 32.4996C55.7363 45.7281 46.5703 56.773 33.6084 62.3971C32.9609 62.6891 32.3262 62.9176 32.2119 62.9176C31.8945 62.9176 29.584 61.8766 27.7051 60.899C16.3682 54.9449 8.50977 44.6998 6.02148 32.5758C5.25977 28.9322 5.25977 28.8053 5.20898 18.8522L5.1582 9.63536L7.03711 9.54649C15.2002 9.17832 24.1758 6.76622 30.4092 3.23692C31.3613 2.70372 32.1611 2.25938 32.1738 2.24668C32.1738 2.24668 32.5547 2.43711 32.999 2.69102Z" fill="black"/>
<path d="M31.5771 5.20458C31.3359 5.29345 30.4472 5.6997 29.6094 6.10595C23.3633 9.08935 16.8633 10.8667 9.58885 11.5649C8.66209 11.6538 8.1162 11.9331 7.65916 12.5552C7.39256 12.9106 7.39256 13.0503 7.35448 19.4741C7.31639 26.7739 7.41795 28.4624 8.09081 31.814C9.20799 37.3618 11.6328 42.8208 14.9717 47.3022C18.8945 52.5581 24.0742 56.7983 30.1553 59.7183C32.1484 60.6704 32.3262 60.6704 34.459 59.6294C41.4795 56.189 47.167 51.1362 51.1914 44.7632C52.1943 43.1763 53.9717 39.5962 54.5937 37.9077C55.7871 34.6831 56.5615 31.3569 56.9043 28.0054C57.0693 26.4311 57.0947 24.7427 57.0693 19.4741C57.0312 13.0503 57.0312 12.9106 56.7646 12.5552C56.3076 11.9331 55.7617 11.6538 54.8349 11.5649C47.6367 10.8667 41.5049 9.2163 35.081 6.22021C33.8242 5.63622 32.6181 5.12841 32.415 5.09033C32.1992 5.05224 31.8183 5.10302 31.5771 5.20458ZM33.2021 7.74365C34.5732 8.42919 37.4678 9.66064 39.3847 10.3589C43.7265 11.9458 49.4648 13.2534 53.7939 13.6343L54.873 13.7231V20.6421C54.8603 27.1167 54.8476 27.6753 54.581 29.3384C53.2988 37.5142 49.8203 44.4331 44.082 50.1587C41.6191 52.6343 39.207 54.4751 35.9824 56.3667C34.5732 57.2046 32.4658 58.2202 32.1738 58.2202C31.8945 58.2202 28.8096 56.6206 27.3877 55.7446C24.6201 54.0308 22.5127 52.355 20.2148 50.0444C14.6035 44.4077 11.1377 37.4888 9.84276 29.4018C9.60155 27.8403 9.56346 27.0659 9.52538 20.7436L9.4619 13.7993L9.76659 13.7358C9.93163 13.7104 10.8838 13.5835 11.8994 13.4692C18.1582 12.7583 25.0771 10.7397 30.625 8.02294C31.3994 7.64208 32.0976 7.3247 32.1865 7.3247C32.2754 7.31201 32.7324 7.50244 33.2021 7.74365Z" fill="black"/>
<path d="M33.4814 12.1994C31.8437 12.5422 30.5107 13.177 29.1142 14.2942C28.581 14.7258 28.1494 15.1194 28.1494 15.1575C28.1367 15.2082 27.9208 15.4875 27.6542 15.7922L27.1718 16.3508L26.6259 16.1985C26.3212 16.1223 25.5468 16.0588 24.8994 16.0588C22.081 16.0588 19.4785 17.7219 18.2724 20.2864C17.9169 21.0354 17.7265 21.2766 17.4853 21.3401C16.4316 21.6067 14.7431 22.9905 13.9433 24.26C12.4706 26.5832 12.3564 29.4016 13.6132 31.801C14.5146 33.5149 15.9999 34.7717 17.9296 35.4573L18.9453 35.8127H31.5771C45.7705 35.8127 44.8183 35.8762 46.9384 34.8352C48.4619 34.0989 49.9853 32.5754 50.7216 31.052C51.4326 29.6174 51.6738 28.5891 51.6738 27.1164C51.6738 25.6438 51.4326 24.6155 50.7216 23.1809C50.3027 22.3049 49.9853 21.886 49.1093 21.0227C47.954 19.8674 46.9257 19.2326 45.4912 18.7883C44.7802 18.5598 44.7421 18.5217 44.4501 17.8742C43.4472 15.6145 41.4287 13.6594 39.1054 12.7073C37.455 12.0471 35.2333 11.844 33.4814 12.1994ZM37.8867 14.5862C38.3818 14.7512 39.1943 15.1575 39.6767 15.4875C41.2382 16.5159 42.0507 17.633 42.8759 19.842C43.0917 20.4133 43.2441 20.5022 44.2343 20.718C46.583 21.2004 48.538 22.9524 49.2236 25.1867C49.5664 26.2912 49.5664 27.9416 49.2236 29.0461C48.5888 31.1028 46.9765 32.677 44.7802 33.4133C44.1328 33.6291 43.333 33.6545 32.4023 33.6926C25.6611 33.718 20.3164 33.6799 19.7451 33.6164C17.79 33.3752 16.2158 32.2707 15.416 30.5696C15.0351 29.7698 15.0097 29.6301 15.0097 28.3225C15.0097 27.0657 15.0478 26.8498 15.3652 26.177C16.0507 24.7043 16.9775 23.8791 18.6406 23.2444C19.5927 22.8762 19.6181 22.8381 19.999 21.759C20.4941 20.3371 21.4081 19.3469 22.8173 18.6867C23.9472 18.1662 25.5341 18.0774 26.7148 18.4709C27.1464 18.6233 27.6415 18.7375 27.8066 18.7375C28.124 18.7375 28.5937 18.2932 29.0253 17.5823C29.4316 16.8713 30.9169 15.551 31.7929 15.0813C33.6337 14.1164 35.9443 13.926 37.8867 14.5862Z" fill="black"/>
<path d="M18.5898 38.1743C18.4756 38.2505 18.082 38.8726 17.7393 39.5581C16.9014 41.2212 16.9014 41.8813 17.7393 42.2241C18.0439 42.3511 18.1963 42.3511 18.5137 42.2241C18.8311 42.0845 19.0342 41.8052 19.5928 40.688C19.9736 39.9263 20.2783 39.1646 20.2783 38.9868C20.2783 38.2759 19.2627 37.7808 18.5898 38.1743Z" fill="black"/>
<path d="M25.1279 38.1237C24.874 38.2253 23.5791 40.904 23.5791 41.3229C23.5791 41.8561 24.2393 42.402 24.7598 42.3005C24.9756 42.2624 25.2295 42.1608 25.3184 42.0719C25.6357 41.818 26.7529 39.4567 26.7529 39.0758C26.7529 38.4792 26.3086 38.0348 25.7627 38.0475C25.5088 38.0475 25.2168 38.0856 25.1279 38.1237Z" fill="black"/>
<path d="M31.4883 38.3145C31.0947 38.7461 30.0537 40.9043 30.0537 41.2852C30.0537 41.6914 30.6885 42.3516 31.0947 42.3516C31.2598 42.3516 31.5264 42.2627 31.6914 42.1484C32.0977 41.8564 33.3799 39.2158 33.2783 38.873C33.126 38.3652 32.707 38.0352 32.2119 38.0352C31.8945 38.0352 31.666 38.124 31.4883 38.3145Z" fill="black"/>
<path d="M37.9629 38.3137C37.5947 38.7073 36.5283 40.9289 36.5283 41.2844C36.5283 41.6906 37.0234 42.2112 37.4932 42.3C38.0898 42.4143 38.5342 41.9446 39.2451 40.4592C39.9053 39.0754 39.9307 38.7707 39.4229 38.2883C39.042 37.9328 38.3057 37.9455 37.9629 38.3137Z" fill="black"/>
<path d="M44.5898 38.2121C44.4502 38.3137 44.0186 39.0246 43.6377 39.8117L42.9521 41.2336L43.2061 41.6906C43.498 42.2492 44.0059 42.4396 44.5391 42.2238C44.8438 42.0842 45.0596 41.7922 45.6182 40.6623C46.3926 39.1389 46.4434 38.6184 45.8848 38.2248C45.542 37.9836 44.9199 37.9836 44.5898 38.2121Z" fill="black"/>
<path d="M22.9697 44.7126C22.5889 44.9792 21.4209 47.3152 21.4209 47.8103C21.4209 48.6228 22.373 49.0925 23.0459 48.6228C23.4268 48.3562 24.5947 46.0202 24.5947 45.5251C24.5947 44.7126 23.6426 44.2429 22.9697 44.7126Z" fill="black"/>
<path d="M29.4443 44.7126C29.0762 44.9665 27.8955 47.3152 27.8955 47.7849C27.8955 48.5085 28.7842 49.029 29.4063 48.6863C29.8379 48.4577 31.0566 46.1345 31.0693 45.5505C31.0693 44.7253 30.1299 44.2302 29.4443 44.7126Z" fill="black"/>
<path d="M35.9824 44.6494C35.7158 44.8018 34.3701 47.4424 34.3701 47.8232C34.3701 48.1533 35.0303 48.8262 35.373 48.8262C36.0078 48.8262 36.2744 48.5342 36.9854 47.125C37.7471 45.6016 37.7852 45.2969 37.2139 44.7891C36.8711 44.4971 36.3633 44.4336 35.9824 44.6494Z" fill="black"/>
<path d="M42.4571 44.6493C42.0889 44.8651 40.8194 47.5565 40.9083 47.9374C41.0733 48.6229 41.8985 49.0165 42.5079 48.6991C42.7872 48.5467 44.1456 45.9188 44.1456 45.5126C44.1456 45.3729 43.9805 45.0809 43.7774 44.8778C43.3838 44.4842 42.876 44.4081 42.4571 44.6493Z" fill="black"/>
<path d="M32.7324 51.1875C32.3134 51.4922 31.082 54.044 31.1582 54.4629C31.2978 55.1612 32.2246 55.5166 32.8213 55.0977C33.1767 54.8565 34.3701 52.5078 34.3701 52.0508C34.3701 51.6446 33.7353 50.9844 33.3291 50.9844C33.164 50.9844 32.8974 51.0733 32.7324 51.1875Z" fill="black"/>
</svg>
