<svg width="65" height="65" viewBox="0 0 65 65" fill="none" xmlns="http://www.w3.org/2000/svg">
<path d="M37.7178 1.43449C35.1787 2.91984 34.7978 3.24992 34.9883 3.8466C35.1279 4.30363 38.2002 8.55656 38.5049 8.7216C38.9746 8.97551 39.3174 8.91203 39.6728 8.48039C40.1045 7.95988 40.041 7.70598 39.1142 6.41105C38.7207 5.85246 38.3525 5.33195 38.3017 5.24308C38.251 5.15422 38.7588 5.24308 39.584 5.45891C50.1972 8.23918 58.2969 17.1132 60.1123 27.9296C60.3662 29.4911 60.4931 29.7831 60.9502 29.9482C61.6611 30.1894 62.207 29.7831 62.207 29.0214C62.1943 27.7265 61.5976 25.0351 60.8105 22.788C58.5762 16.3896 54.501 11.1464 48.8769 7.45207C46.3379 5.78898 42.5293 4.1132 39.8379 3.49113C39.292 3.36418 38.8476 3.21183 38.8476 3.16105C38.8476 3.11027 39.3681 2.7675 39.9902 2.41203C41.1963 1.72648 41.3867 1.52336 41.3867 0.901288C41.3867 0.469647 40.8916 -7.9155e-05 40.4472 -7.9155e-05C40.3076 -7.9155e-05 39.0762 0.647382 37.7178 1.43449Z" fill="black"/>
<path d="M26.7236 3.11034C18.5859 4.78612 11.667 9.458 7.28711 16.25C5.44629 19.081 4.24023 21.8867 3.27539 25.581L3.09766 26.2158L2.4248 25.0351C1.70117 23.791 1.51074 23.6133 0.901367 23.6133C0.482422 23.6133 0 24.1084 0 24.54C0 24.6797 0.647461 25.9111 1.43457 27.2695C2.90723 29.8213 3.25 30.2021 3.84668 30.0117C4.18945 29.8975 8.36621 26.9775 8.6709 26.6348C9.00098 26.2539 8.9375 25.7969 8.50586 25.3652C7.99805 24.8574 7.74414 24.9336 6.28418 25.9746C5.66211 26.4189 5.12891 26.7363 5.10352 26.6728C5.07812 26.6094 5.17969 26.1016 5.31934 25.543C7.3252 17.71 12.7715 11.0322 20.1094 7.42675C22.6992 6.15722 24.8066 5.45897 27.6123 4.95116C29.1611 4.67186 29.4531 4.48144 29.4531 3.74511C29.4531 3.44042 29.3643 3.24999 29.123 3.05956C28.7041 2.72948 28.4883 2.74218 26.7236 3.11034Z" fill="black"/>
<path d="M36.5244 12.9619C35.915 13.584 27.8408 25.2764 27.7393 25.6826C27.6631 25.9492 27.7266 26.0889 28.0313 26.4062C28.4629 26.8379 28.7549 26.876 29.1738 26.584C29.3262 26.4824 30.4561 24.9463 31.6875 23.1943C32.9189 21.4297 33.9092 20.084 33.8711 20.1855C33.833 20.2871 33.084 22.4707 32.1953 25.0225C31.3193 27.5869 30.5957 29.8213 30.5957 29.999C30.5957 30.1768 30.71 30.4434 30.8369 30.6084L31.0781 30.9131L35.915 30.9512C38.5811 30.9766 40.752 31.0273 40.752 31.0654C40.752 31.1035 40.0918 32.0811 39.2793 33.2363C38.4668 34.4043 37.7559 35.4834 37.6924 35.6484C37.54 36.0547 37.7939 36.5752 38.251 36.791C38.5303 36.9307 38.6572 36.9307 38.9492 36.791C39.2539 36.6387 40.5615 34.874 42.9736 31.332C43.748 30.1895 43.8623 29.6689 43.4053 29.25C43.1514 29.0215 42.8213 29.0088 38.0352 28.9453L32.9316 28.8818L35.5215 21.3916C36.9434 17.2656 38.1113 13.7363 38.1113 13.5459C38.124 13.127 37.7813 12.7461 37.2988 12.6318C37.0068 12.5557 36.8672 12.6191 36.5244 12.9619Z" fill="black"/>
<path d="M25.6572 28.7292C25.3906 28.8688 24.1719 30.5192 22.0137 33.6931C21.252 34.8102 21.1377 35.3434 21.5947 35.7497C21.8486 35.9782 22.1787 35.9909 26.9648 36.0544L32.0684 36.1179L29.4785 43.6081C28.0566 47.7214 26.8887 51.2634 26.8887 51.4538C26.8633 52.2663 27.9043 52.6472 28.501 52.0378C28.793 51.7331 36.2578 41.0563 36.7148 40.2819C37.1465 39.571 36.7148 38.8474 35.8516 38.8474C35.6357 38.8474 35.3691 38.9489 35.2676 39.0632C35.1533 39.1901 34.1631 40.5739 33.0713 42.1481C31.9668 43.7224 31.0908 44.9157 31.1289 44.8142C31.167 44.7126 31.916 42.529 32.8047 39.9772C33.6807 37.4255 34.4043 35.1911 34.4043 35.0134C34.4043 34.8356 34.29 34.5563 34.1631 34.3913L33.9219 34.0866L29.085 34.0485C26.4189 34.0231 24.248 33.985 24.248 33.9343C24.248 33.8962 24.8193 33.0456 25.5176 32.0554C26.2158 31.0524 26.8506 30.1003 26.9268 29.9225C27.1172 29.4909 26.8887 28.9069 26.457 28.7038C26.0635 28.5261 26.0381 28.5261 25.6572 28.7292Z" fill="black"/>
<path d="M61.0644 35.001C60.9629 35.0518 59.833 35.8135 58.5635 36.7148C56.6465 38.0732 56.2402 38.416 56.1767 38.7334C56.0244 39.4443 56.748 40.1299 57.3828 39.8887C57.5605 39.8125 58.1826 39.4189 58.7666 38.9873C59.3633 38.5684 59.8711 38.2383 59.8965 38.2637C59.9219 38.3018 59.7568 39 59.541 39.8252C56.9131 49.6895 49.0674 57.3447 39.1016 59.7822C38.3017 59.9854 37.3242 60.1885 36.9433 60.2393C36.5625 60.29 36.0928 60.417 35.9023 60.5059C35.2803 60.8232 35.2676 61.7627 35.8769 62.1562C36.1689 62.3594 36.2832 62.3594 37.4892 62.1562C42.4531 61.3057 47.0361 59.2744 50.9844 56.1641C56.1387 52.1016 59.8203 46.5283 61.4453 40.333C61.6484 39.5713 61.8389 38.9238 61.8642 38.8857C61.9023 38.8604 62.1943 39.3047 62.5244 39.8887C63.3242 41.2852 63.4258 41.3867 63.9971 41.3867C64.3652 41.3867 64.5303 41.3105 64.7334 41.0566C64.8857 40.8662 65 40.5996 65 40.46C65 40.3203 64.3525 39.0889 63.5781 37.7305C62.0293 35.0771 61.7246 34.7471 61.0644 35.001Z" fill="black"/>
<path d="M3.11038 36.2451C2.72952 36.6133 2.71682 36.918 3.0342 38.4795C4.27834 44.4717 7.07131 49.6133 11.4512 53.9678C15.1455 57.624 20.2744 60.5186 25.0479 61.6357C25.5811 61.7627 26.0254 61.9023 26.0254 61.9404C26.0254 61.9785 25.543 62.2959 24.9463 62.626C23.8037 63.2734 23.6133 63.4893 23.6133 64.0986C23.6133 64.5176 24.1084 65 24.5401 65C24.6797 65 25.9112 64.3525 27.2696 63.5654C29.8213 62.0928 30.2022 61.75 30.0117 61.1533C29.961 61.001 29.1865 59.833 28.2852 58.5635C26.9268 56.6465 26.584 56.2402 26.2666 56.1768C25.5557 56.0244 24.8701 56.748 25.1114 57.3828C25.1875 57.5605 25.6065 58.208 26.0635 58.8428C26.5205 59.4648 26.876 59.998 26.8506 60.0234C26.7744 60.1123 23.7783 59.2617 22.5977 58.8174C20.9346 58.1953 18.4209 56.9131 16.9229 55.8975C12.6953 53.0537 9.44534 49.3213 7.23635 44.751C6.05569 42.3389 5.35745 40.1807 4.81155 37.2734C4.58303 36.0293 3.79592 35.5596 3.11038 36.2451Z" fill="black"/>
</svg>
